<?xml version="1.0" encoding="UTF-8"?>
<svg id="Layer_2" data-name="Layer 2" xmlns="http://www.w3.org/2000/svg" viewBox="0 0 224 222.52">
  <defs>
    <style>
      .cls-1 {
        fill: #000;
        stroke-width: 0px;
      }
    </style>
  </defs>
  <g id="Layer_1-2" data-name="Layer 1">
    <path class="cls-1" d="M0,55C0,54.67,0,54.33,0,54c5.4-5.13,10.88-10.19,16.18-15.42C29.16,25.77,42.06,12.87,55,0c56.33,0,112.67,0,169,0v169c-.78.57-1.64,1.06-2.33,1.73-16.16,15.84-32.31,31.7-48.46,47.55-1.13,1.11-2.3,2.19-4.46,4.23v-126.39l-1.44-.67c-41.84,41.87-83.68,83.74-124.86,124.94-13.44-13.42-26.72-26.68-40.61-40.55,41.25-41.25,82.86-82.85,124.87-124.85H0Z"/>
  </g>
</svg>