<?xml version="1.0" encoding="UTF-8"?>
<svg id="Layer_2" data-name="Layer 2" xmlns="http://www.w3.org/2000/svg" viewBox="0 0 736.95 911.93">
  <defs>
    <style>
      .cls-1 {
        fill: #000;
        stroke-width: 0px;
      }
    </style>
  </defs>
  <g id="Layer_1-2" data-name="Layer 1">
    <g>
      <path class="cls-1" d="M276.04.09C361.7.09,447.36,0,533.02.12c61.97.09,123.95.44,185.92.69,5.86.02,6.82.93,7.08,7.45.83,20.96,1.58,41.93,2.35,62.9,1.29,35.28,2.59,70.57,3.85,105.85.89,25.13,1.87,50.26,2.54,75.4.76,28.3,1.19,56.61,1.81,84.91,1.22,55.02-.35,109.95-6.98,164.61-5.42,44.64-15.16,88.3-32.82,129.92-19.58,46.15-47.58,86.53-83,121.91-32.11,32.08-68.13,59.12-106.27,83.51-38.08,24.36-77.78,45.81-118.26,65.84-5.67,2.81-11.31,5.72-17.16,8.1-2.04.83-5.08,1.02-6.99.1-51.55-24.72-102.1-51.3-149.7-83.11-47.33-31.63-90.94-67.52-126.17-112.74-26.56-34.11-46.42-71.75-59.92-112.83-14.82-45.1-21.89-91.55-25.81-138.69C-.5,416.04-.31,368.05.4,320.08c.69-46.95,2.84-93.88,4.39-140.81.93-28.29,1.94-56.58,2.91-84.88.99-28.96,1.97-57.92,3-86.87C10.95.32,11.4,0,18.56,0c85.83,0,171.65,0,257.48,0v.08ZM368.42,25.04c-79.66,0-159.32,0-238.97,0-30,0-59.99,0-89.99-.08-3.45,0-5.84.58-5.98,4.75-.92,26.96-1.96,53.91-2.9,80.87-.83,23.8-1.63,47.6-2.37,71.41-1.58,50.6-3.93,101.2-4.42,151.81-.38,39.28.87,78.61,2.66,117.86,1.98,43.37,8.41,86.16,20.37,128.05,14.2,49.77,37.72,94.48,71.18,133.97,35.82,42.26,79.23,75.44,125.56,105.13,39.05,25.01,80.17,46.28,121.64,66.89,1.66.82,4.44,1.01,6,.18,33.39-17.72,67.17-34.75,99.86-53.69,47.41-27.47,91.72-59.3,130.09-98.88,34.08-35.16,60.23-75.26,77.96-120.95,17.96-46.29,26.1-94.64,30.34-143.75,4.22-48.85,4.61-97.85,3.36-146.84-1.19-47.12-2.68-94.22-4.24-141.33-1.65-49.93-3.58-99.86-5.22-149.79-.15-4.44-1.73-5.67-5.96-5.66-109.65.08-219.31.07-328.96.06Z"/>
      <path class="cls-1" d="M247.31,638.37c-2.79,0-4.83-.09-6.86.02-5.07.28-9.45-.83-13.09-4.79-1.27-1.38-3.66-2.11-5.64-2.35-3.29-.4-6.71.18-9.96-.34-2.33-.37-5.66-1.3-6.47-2.98-2.13-4.41-5.44-4.55-9.43-4.66-5.9-.16-10.94-1.77-13.69-8.04-1.86-4.26-12.42-7.01-18.59-5.45-3.03.77-5.97,1.89-9.91,3.16,1-6.18,3.93-10.53,8.02-13.65,3.33-2.53,7.65-3.73,11.46-5.67,1.41-.72,2.61-1.86,3.91-2.82-1.61-.98-3.26-2.81-4.83-2.73-2.53.12-5.04,1.38-7.48,2.37-1.61.66-3.06,1.69-4.68,2.61-2.15-6.57,2.04-15.33,8.86-19.83,9.6-6.33,19.24-7.87,29.29-.87,2.67,1.86,5.81,3.05,8.94,4.65.39-1.44.63-1.95.53-2.03-4.78-3.97-9.27-8.44-14.55-11.58-2.14-1.27-6.02.44-9.11.7-1.07.09-2.65.32-3.12-.24-.53-.62-.33-2.19.03-3.17,2.87-7.83,12.07-13.43,20.74-12.78,6.48.48,12.49,1.97,17.03,7.13,2.57,2.91,4.38,2.25,5.72-1.3,1.01-2.68,3.87-5.64,3.26-7.7-.67-2.28-4.28-3.77-6.73-5.44-3.03-2.06-2.33-3.52.48-5,7.47-3.9,22.84-.07,27.21,7,2.95,4.77,2.17,9.68-.57,14.21-1.62,2.68-3.78,5.06-5.82,7.47-5.17,6.09-6.22,11.37-1.19,17.6,4.59,5.7,10.17,11.17,16.44,14.81,7.97,4.64,17.05,7.36,25.69,10.82.8.32,1.84.04,3.92.04-1.41-2.08-2.3-3.33-3.12-4.63-3.99-6.28-4.39-12.84-1.15-19.48.65-1.33,2.27-2.19,3.44-3.26.82,1.1,1.78,2.11,2.43,3.3,1.7,3.14,3.65,5.85,8.79,6.07-1.03-1.81-1.55-3.07-2.36-4.1-4.19-5.3-4.75-11.2-3.09-17.5.97-3.67,2.38-4.67,5.78-1.71,8.74,7.61,20.31,4.88,23.41-5.3,1.3-4.28.81-7.73-4.07-9.73-4.58-1.88-6.07-7.46-3.55-11.78.73-1.26,1.63-2.42,3.02-4.47-2.35-.38-4.03-.5-5.63-.93-4.92-1.34-10.05-2.28-14.65-4.35-4.16-1.86-6.39-5.82-6.09-10.64.31-4.98,3.32-8.27,7.44-10.56,3.51-1.95,6.25-.02,6.1,4.08-.27,7.73,5.04,11.99,12.79,10.82-3.62-6.11-7.21-12.48-11.11-18.66-4.09-6.48-1.7-11.81,5.98-12.67,4.63-.52,9.37-.5,13.88-1.5,2.73-.61,6.05-2.09,7.5-4.25,4.92-7.33,12.11-9.66,20.12-10.33,4.45-.38,8.99.39,13.45.07,2.38-.17,4.97-1.13,6.93-2.5,4.48-3.13,8.44-7,12.97-10.05,4.11-2.77,6.52-1.41,6.84,3.61.22,3.47.02,7-.35,10.47-.37,3.52,1.09,5.74,4.41,5.94,4.25.26,8.55-.18,12.82-.29,1.71-.05,4.52-.62,4.91.1.82,1.49.99,3.98.29,5.53-1.37,3.04-3.53,5.71-5.37,8.54.24.49.49.98.73,1.47,3.41-1.19,6.9-2.18,10.21-3.61,4.7-2.02,7.02-.95,6.21,3.96-.58,3.51-2.81,6.85-4.72,10.01-.95,1.57-2.85,2.56-4.54,4,4.92,2.03,12.33-.87,15.94-5.75,3.39-4.58,5.05-4.49,8.07.47,5.28,8.67.9,20.81-9.45,25.97-2.76,1.38-5.64,2.54-9.68,4.34,2.24.68,3.29,1.39,4.14,1.2,2.73-.62,5.37-1.59,8.06-2.39,2.1-.63,4.22-1.2,6.33-1.8-.12,2.58.35,5.35-.46,7.69-3.44,9.99-16.13,16.51-27.61,13.69-5.67-1.4-10.87-4.58-16.42-6.6-1.21-.44-3.82.16-4.31,1.07-1.68,3.11-2.69,6.58-3.96,9.92.37.17.73.33,1.1.5.38-.6.79-1.19,1.12-1.82q3.9-7.29,10.56-2.71c.69.47,1.37,1.11,2.14,1.27,4.92,1.03,8.37,3.84,11.54,7.76,3,3.71,7.63,4.38,12.39,3.53,1.17-.21,2.46.3,3.7.48-.24,1.21-.19,2.59-.76,3.62-3.93,7.13-11.04,10.36-19.42,9.04-1.9-.3-3.82-.52-5.72-.78-.29.61-.58,1.22-.87,1.83,2.11,1.21,4.13,2.67,6.37,3.55,1.47.57,3.31.14,4.92.47,1.48.3,3.82.71,4.08,1.58.37,1.24-.43,3.28-1.39,4.4-4.96,5.74-11.51,7.62-18.88,7.08-1.77-.13-3.53-.43-6.61-.81,5.38,4.94,10.91,3.05,16.57,3.42-2.43,7.11-7.45,10.26-13.29,12.4-5.17,1.9-5.76,3.01-2.62,7.73,6.99,10.49,17.89,15.1,29.3,18.64,9.69,3.01,19.7,5.07,29.24,8.47,16.14,5.75,26.91,16.98,31.01,33.86,1.06,4.37,3.53,6.13,7.54,6.61,5.64.67,11.26.6,14.97-4.5,3.91-5.37,2.05-10.86-.94-15.94-5.35-9.1-14.39-14.19-22.6-20.09-9.33-6.7-19.16-12.71-28.37-19.57-10.14-7.56-18.63-16.58-22.57-29.14-8-25.5,11.77-49.91,38.39-47.45,20.87,1.92,37.62,12.01,51.79,26.55,9.27,9.52,17.41,20.13,26.14,30.18,2.83,3.26,5.64,6.64,8.95,9.36,6.44,5.28,12.14,4.33,17-2.29.69-.94,1.39-1.87,2.19-2.71.3-.31.88-.36,1.3-.52,6.23,6.99,2.51,19.33-7.34,22.52-5.16,1.67-4.74,3.4-3.33,7.76,1.31,4.07.24,8.85.7,13.26.25,2.37,1.5,4.63,2.3,6.94,2.16-1.46,5.01-2.46,6.35-4.47,2.96-4.45,1.89-8.49-2.2-11.86-.96-.79-1.87-1.65-3.6-3.18,8.63-3.81,15.46-3.2,21.18,4.4,4.99-10.23-3.25-14.55-7.45-20.36,6.72-2.25,14.32.82,18.56,7.02,7.78,11.36,4.46,29.8-7.07,39.29-14.98,12.33-42.76,11.93-57.18-1.08-7.37-6.65-10.97-15.42-11.78-25.19-.28-3.39-1.17-4.93-4.69-5.66-5.62-1.16-9.59-4.66-10.63-10.6-1.01-5.82,1.16-10.58,5.9-13.9,1.6-1.12,3.94-1.16,5.95-1.69.13,1.63.09,3.3.45,4.88.3,1.28,1.08,2.44,1.65,3.65,1.25-.84,3.31-1.48,3.57-2.55.41-1.77.24-4.17-.69-5.68-11.55-18.6-26.2-34.01-46.64-42.86-3.98-1.72-8.74-2.39-13.12-2.3-15.22.32-22.81,14.5-14.38,27.13,3.26,4.89,7.61,9.35,12.3,12.92,14.31,10.89,29.22,20.98,43.51,31.91,9.39,7.18,17.19,15.96,19.42,28.17,4.09,22.36-14.66,41.17-37.09,37.4-5.98-1-6.15-.86-6.81,5.07-.43,3.86-.93,7.71-1.57,13.06,2.68-1.79,4.08-2.78,5.53-3.68,4.54-2.82,9.08-6,14.8-3.64,1.37.56,2.75,2.01,3.23,3.37.23.65-1.62,2.04-2.53,3.1-2.04,2.38-4.47,4.52-6.04,7.17-3.83,6.46-7.23,13.16-13.8,17.44-.61.4-.93,1.25-.95,2.89,1.87-.58,3.73-1.22,5.62-1.73,1.34-.36,2.73-.55,4.1-.81,0,1.57.64,3.62-.12,4.61-3.47,4.56-7.08,9.08-11.14,13.1-2.52,2.49-4.83,4.67-6.85,7.85-2.91,4.59-8.34,7.72-13.05,10.96-2.56,1.76-4.73,2.74-5.9,6.41-2.1,6.57-8.04,9.69-14.82,9.96-6.14.24-12.32-.2-18.46-.65-15.3-1.12-27.97,3.54-38.26,15.39-3.14,3.62-8.19,6.43-12.88,7.66-5.83,1.52-9.47,4.36-11.61,9.68-1.73,4.3-3.47,4.53-6.57,1.01-2.83-3.22-3.57-7.11-1.94-10.74,2.08-4.63,5.05-8.87,7.74-13.21.9-1.45,2.13-2.7,3-3.79-5.27-1.69-9.94-3.97-14.78-4.45-3.03-.3-6.37,2.02-9.48,3.38-1.54.67-2.86,1.83-4.9,3.18-1.19-8.12,1.49-13.92,7.29-17.55,5.22-3.27,11.26-5.23,17.52-8.03-6.24-8.21-12.61-3.79-20.06.98.88-6.88,2.72-11.29,6.8-14.82,7.19-6.2,15.84-4.76,24.21-4.72,1.1,0,2.19.41,3.37.65-.51-5.64-2.96-7.37-8.18-6.23-1.37.3-2.82.21-4.23.31.06-1.56-.42-3.45.29-4.62,1.49-2.48,3.48-4.7,5.49-6.81,1.04-1.09,2.57-1.72,4.27-2.81-5.22-2.16-15.18-.3-17.93,2.92-2.46,2.88-1.28,5.43.62,8.11,1.04,1.46,2.55,4.12,2,4.88-1.1,1.51-3.42,2.69-5.36,2.91-3.97.45-7.43-.41-9.68,5.05-1.85,4.49-7.92,4.07-12.65,3.53-2.41-.28-4.77-.95-7.38-1.49,1.63,6.2-.42,9.67-6.57,11.18-8.08,1.99-14.77-.55-20.14-6.78-1.09-1.26-2.13-2.57-3.09-3.93-1.75-2.48-3.57-2.44-5.02.08-3.25,5.66-7.27,10.04-13.83,12.23-1.83.61-2.59,4.73-3.6,7.34-.43,1.11-.22,2.46-.3,3.7-1.38-.27-2.95-.22-4.12-.88-8.94-5.04-10.11-19.59-2.19-26.23,1.42-1.19,2.77-2.45,4.15-3.68-.25-.47-.5-.94-.75-1.41-2.21.73-4.47,1.32-6.61,2.22-6.11,2.59-12.32,4.16-18.95,2.27-1.27-.36-2.81-.57-3.69-1.42-4.43-4.28-8.22-3.08-11.99.9-.71.75-1.87,1.07-2.84,1.59-2.6-5.56-1.4-13.27,3.88-17.39,4.7-3.67,10.5-5.92,16.09-8.95-4.78-9.17-12.6-9.29-21.4-5.24-.73-9.42,7.4-15.29,20.45-18.36,11.29-2.65,18.31,4.36,26.34,9.56.51-1.09.84-1.55.76-1.64-4.62-5.11-8.81-10.77-14.13-15-2.56-2.04-7.24-1.49-10.99-1.89-1.54-.17-3.15.25-6.13.53,1.48-2.39,2.09-3.85,3.1-4.92,8.67-9.2,23.78-12.22,35.04-6.37,3.3,1.72,5.8,5.29,8.13,8.41,1.54,2.07,2.22,4.82,3.09,7.34,4.93,14.25,13.69,20.07,28.82,18.96,2.48-.18,4.99-.55,7.39-1.21,7.59-2.06,11.14-7.98,9.42-15.63-.76-3.41-2.21-6.71-2.63-10.15-.53-4.4-1.08-9.03-.26-13.3,1.32-6.91,3.08-7.2,9.88-6.01,5.88,1.03,12.03,1.97,17.73-.8.02-.46.03-.92.05-1.38-3.05-.31-6.1-.6-9.14-.94-6.77-.75-13.73-.86-19.42-5.41-4.87-3.89-4.88-5.1-.29-9.22,4.79-4.3,8.45-9.2,7.94-16.47-4.23,4.83-8.08,10.09-12.81,14.37-4.67,4.22-10.23,7.46-15.4,11.13-.35-.38-.7-.75-1.05-1.13l4.2-11.71c-.57-.35-1.14-.69-1.72-1.04-5.87,8.71-11.1,18.32-24.44,18.74,1.34-3.78,2.34-6.58,3.34-9.39-.37-.2-.74-.39-1.1-.59-2.27,3.11-4.43,6.32-6.84,9.32-4.5,5.58-10.08,9.22-17.6,8.69-1.04-.07-2.56-.56-2.9-1.29-.33-.71.46-2.06.98-3,1.2-2.18,2.54-4.29,3.83-6.42-.5-.36-1-.73-1.5-1.09-1.56,1.69-3.23,3.29-4.68,5.07-6.96,8.54-15.28,14.37-26.91,13.61-1.58-.1-3.13-.56-5.95-1.08,3.06-3.15,5.33-5.48,7.82-8.05-7.26-2.03-12.49,1.54-12.48,7.85,0,6.25-.86,12.18-4.48,17.62-2.51,3.79-3.11,8.01-.09,12.15.65.89,1.08,2.8.59,3.44-.62.81-2.35,1.18-3.53,1.06-6.47-.64-10.67-4.69-13.2-10.21-2.98-6.48-4.34-13.32-1.25-20.31.26-.59.39-1.26.46-1.91.03-.27-.25-.58-.67-1.45-1.39.91-2.61,1.97-4.02,2.61-3.44,1.55-6.85,3.53-10.49,4.19-4.64.85-7.54,2.95-9.16,7.3-1.39,3.75-3.19,3.92-6.01.81-4.37-4.82-4.71-14.08-.1-21.09,2.21-3.37,5.58-5.97,8.42-8.93.74-.77,1.46-1.55,2.54-2.69-4.34-1.21-8.12-3.08-11.87-3.04-2.76.03-5.5,2.55-8.25,3.95-1.23.63-2.47,1.25-3.71,1.88-.6-1.3-1.63-2.57-1.73-3.91-.66-8.72,4.24-14.44,10.93-18.85,8.11-5.35,16.67-6.32,25.55-1.68,1.08.56,2.39.68,3.6,1.01.32-.37.64-.74.96-1.11-1.12-1.3-2.19-2.65-3.37-3.88-3.3-3.43-6.4-7.12-10.07-10.11-2.09-1.69-5.07-2.75-7.77-3.09-2.96-.38-6.06.38-10.17.74,2.9-7.65,7.34-12.23,13.81-14.66,6.67-2.5,13.58-1.89,20.13.3,7.04,2.36,10.05,8.29,11.45,15.2,1.87,9.21,7.24,12.28,15.44,8.06,8.12-4.18,15.8-9.22,23.64-13.94.46-.28.63-1.03,1.49-2.53ZM442.55,769.88c6.68,1.34,6.63-2.32,6.62-6.55-.1-32.62-.06-65.25-.05-97.87q0-9.88-9.77-12.68c-4.81-1.37-5.56-.83-5.57,4.2-.06,23.14-.15,46.27-.08,69.41,0,2.02.59,4.37,1.72,6,6.56,9.52,6.73,15.44.58,25.19-1.1,1.74-2.05,3.89-2.15,5.9-.28,5.98-.25,11.98-.01,17.97.06,1.58,1.01,4.14,2.11,4.49,7.16,2.27,14.37,1.74,21.4-.87.26-.1.27-.88.58-2.02-6.98-1.67-12.59-5.18-15.37-13.16ZM407.55,721.38c-1.49,4.44-5.17,2.58-8.91,1.12-2.31-.9-4.77-2.05-7.14-2.03-4.03.04-8.32.23-12,1.65-3.28,1.27-4.66,4.79-2.79,8.41,1.95,3.78,5.13,4.45,8.87,2.74,1.2-.55,2.3-1.32,3.45-1.99,2.8-1.64,3.97-.46,4.2,2.41.4,4.88-3.32,10.23-8.5,12.33-1.97.8-3.87,1.76-5.8,2.65-.09.57-.18,1.14-.27,1.71,11.76-1.87,15.27,6.64,19.68,14.1,1,1.7,2.06,3.83,3.66,4.61,2.26,1.11,5.46,2.24,7.52,1.45,8.5-3.29,15.64-8.68,21.02-16.2,6.24-8.71,4.57-16.26-4.63-21.67-6.05-3.56-11.96-7.35-18.35-11.3ZM454.98,714.99h.12c0,16.32,0,32.65,0,48.97,0,8.2.91,9.17,8.85,7.63,2.11-.41,4.82-1.96,5.65-3.73,1.3-2.76.48-5.74-2.56-7.79-1.88-1.26-3.64-2.99-4.85-4.9-1.39-2.18-.62-4.21,2.3-3.71,4.96.84,5.48-1.65,5.45-5.69-.14-21.82-.65-43.66.18-65.44.35-9.25-3.3-14.78-10.33-19.22-1.03-.65-2.67-1.35-3.54-.95-.77.35-1.21,2.19-1.22,3.37-.07,17.15-.05,34.31-.05,51.46ZM355.87,592.07c-6.14-.36-6.69,2.85-6.39,7.04.28,3.81.06,7.66.07,11.49.04,22.33.15,44.66.06,66.98-.02,4.32,1.33,6.34,5.83,5.49,1.63-.31,3.31-.38,4.94-.69,3.27-.61,4.61-2.46,4.6-5.96-.08-27.49.02-54.98-.02-82.48,0-1.71-.18-4.2-1.26-4.97-3.25-2.32-6.98-3.97-10.52-5.88-.31.29-.62.57-.94.86,1.06,2.38,2.13,4.77,3.62,8.11ZM370.71,719.39c4.98-2.09,9.25-3.63,13.23-5.73,1.04-.55,1.62-2.85,1.62-4.35.09-27.28.09-54.56.02-81.84,0-1.39-.33-3.51-1.24-4.03-4.06-2.32-8.39-4.19-13.05-6.43-.3,1.77-.64,2.86-.64,3.95,0,17.8.11,35.61.05,53.41-.01,4.14,1.74,4.61,5.35,3.95,1.85-.34,3.98.88,5.98,1.39-1.06,1.82-1.68,4.39-3.26,5.34-6.16,3.7-9.58,8.43-8.1,15.91.28,1.44.04,2.99.04,4.48,0,4.56,0,9.12,0,13.93ZM315.42,668.13c4.63-1.79,7.66-6,7.65-11.28-.03-26.95-.05-53.9-.11-80.85,0-1.23-.28-2.46-.45-3.86-4.79,1.65-9.13,3.03-13.35,4.71-.82.33-1.48,1.74-1.7,2.77-1.19,5.55.28,7.42,6.22,8.39.72.12,1.37.69,2.8,1.45-1.6,1.38-2.62,2.73-3.98,3.35-4.87,2.19-6.54,6.61-4.78,10.67,2.32,5.33.79,9.62.32,14.83-1.52,16.81-2.68,34.11,7.37,49.82ZM392.3,633.13c-.23,2.06-.53,3.46-.53,4.86,0,23.6.03,47.21.07,70.81,0,.99-.3,2.42.22,2.9,1.55,1.43,3.32,2.95,5.26,3.49.79.22,2.74-1.78,3.33-3.14,1.98-4.53,3.69-9.18,5.3-13.86.63-1.84,1.02-3.86,1.04-5.8.11-15.13.14-30.25.05-45.38,0-1.69-.35-4.08-1.47-4.95-3.98-3.11-8.37-5.7-13.28-8.94ZM328.74,647.09c.4.05.79.1,1.19.16.34-.53.76-1.04,1.01-1.61.8-1.82,1.53-3.67,2.29-5.51,1.79,1.75,3.77,3.36,5.3,5.31.86,1.1,1.18,2.76,1.38,4.22,1.27,9.52-.47,18.21-7.13,25.56-3.18,3.51-2.83,4.52,1.79,5.96,1.11.35,2.27.54,3.38.9,4.26,1.35,5.62-.29,5.61-4.61-.08-27.31.05-54.62.01-81.93,0-1.71-.29-4.04-1.39-5.03-4.19-3.74-8.77-7.05-13.45-10.71v67.29ZM379.96,561.67c.94-.01,1.88-.03,2.82-.04,1-4.78,2.79-9.55,2.86-14.34.35-23.97.27-47.94.27-71.92,0-1.05-.62-2.09-.95-3.14-1.15.43-2.6.56-3.39,1.35-2.56,2.6-4.53,5.9-7.39,8.06-2.8,2.13-3.49,4.46-3.46,7.65.09,7.66-.11,15.32-.02,22.98.02,1.94.29,4.08,1.16,5.76,2.98,5.8,2.74,11.25.17,17.25-1.43,3.33-1.07,7.44-1.59,11.84,3.17-.79,4.86-1.2,6.62-1.64,1,5.59,1.95,10.89,2.9,16.19ZM417.09,681.05c.62.53,1.12.77,1.32,1.16.36.73.53,1.56.79,2.34,2.45,7.17-.68,13.3-3.54,19.54-4.43,9.66-2.89,14.49,6.27,19.88,1.46.86,3.28,1.09,4.93,1.61.39-1.71,1.11-3.41,1.11-5.12,0-20.12-.14-40.25-.19-60.37-.02-9.9.04-9.9-9.27-13.2-4.85-1.72-5.82-1.01-5.85,4.3-.06,9.64-.13,19.29-.14,28.93,0,1.24.27,2.47.47,4.16,1.66-1.32,2.86-2.27,4.1-3.24ZM267.34,686.5l1.84.5c5.91-4.64,11.04-10.22,11.22-18.15.39-17.31.15-34.63-.16-51.95-.03-1.77-1.91-4.01-3.55-5.13-2.14-1.47-4.88-2.07-7.38-2.99-2.77-1.03-4.15-.02-4.14,2.93.01,3.83.17,7.67-.02,11.49-.19,4.07,1.5,5.53,5.42,4.68,2.6-.57,5.94-1.64,6.43,2.09.19,1.48-2.69,3.42-4.27,5.06-.43.44-1.18.6-1.81.82-4.11,1.46-5.94,4.05-5.64,8.69.89,13.97,1.39,27.96,2.05,41.95ZM294.08,676.61c4.41-3.64,7.54-8.71,7.56-15.38.04-11.49-.12-22.98-.16-34.47-.03-10.18-.04-9.98-9.85-11.84-4.26-.81-5.3.59-5.27,4.53.1,11.99-.05,23.98-.04,35.97,0,1.46.15,3.03.69,4.37,2.14,5.38,4.46,10.68,7.06,16.83ZM230.89,607.27c0,.93.18,1.52-.03,1.88-2.01,3.44-4.12,6.83-6.12,10.28-1.09,1.88-2.56,4.18.67,5.22,4.84,1.57,12.95-4.77,12.95-9.86,0-6.83.24-13.67-.13-20.47-.16-2.99-1.09-6.17-2.51-8.81-4.28-7.98-5.16-15.51.41-23.42,1.63-2.32,1.62-5.89,2.04-8.94.12-.89-.66-2.5-1.39-2.77-.82-.3-2.28.3-3.08.97-4.13,3.42-5.99,7.85-5.45,13.25.16,1.59.16,3.19.24,4.81-1.96.26-3.37.44-5.08.66,0,10.57,0,20.86,0,31.15q0,7.86,7.49,6.06ZM539.44,612.35c-.26,2.07-.49,3.02-.49,3.98.08,14.48.82,28.99.06,43.42-.45,8.63,3.28,12.97,10.34,16.01,3.89,1.68,5.13.97,5.14-3.33.03-9.32.16-18.65-.16-27.96-.08-2.2-1.34-4.74-2.84-6.42-2.46-2.76-3-4.91.62-6.66,3.99-1.93,2.46-3.88.41-6.1-3.26-3.53-6.42-7.15-9.7-10.65-.71-.76-1.75-1.2-3.39-2.3ZM349.56,721.45h.07c0,4.66-.06,9.31.01,13.97.15,9.64.15,9.47,9.7,7.95,4.06-.65,5.72-2.36,5.66-6.51-.17-10.47-.04-20.95-.03-31.42,0-11.5.04-11.39-10.86-8.4-3.32.91-4.67,2.56-4.58,5.96.15,6.15.04,12.3.04,18.45ZM280.52,748.99s-.08,0-.12,0c0-4.99.52-10.05-.13-14.95-.82-6.17-2.19-12.35-4.15-18.25-.91-2.75-3.53-5.13-5.87-7.1-.65-.55-3.88.51-4.5,1.62-2.11,3.84,0,11.59,2.98,15.12,2.41,2.85,4.65,6.03,6.15,9.43,1.34,3.04-.37,4.95-3.87,5.25-1.9.16-3.73,1-5.6,1.53.8,2.04,1.21,4.38,2.49,6.04,1.69,2.19,2.23,3.81.23,6.07-4.3,4.87-4,5.71,2.17,7.59,4.81,1.46,5.88,4.82,2.5,8.6-1.52,1.7-3.68,2.82-5.34,4.42-.82.79-1.84,2.28-1.6,3.09,1.12,3.71,6.6,4.84,9.27,1.92,3.32-3.61,5.75-7.58,5.44-12.91-.33-5.8-.07-11.64-.07-17.47ZM343.59,730.47s.05,0,.08,0c0-8.98.01-17.96,0-26.94-.01-5.15-1.38-6.29-7.7-6.35-4.51-.04-4.65,3.48-4.3,6.32.58,4.75,1.68,9.48,3.02,14.09,2.17,7.44,1.36,14.06-3.98,19.99-1.13,1.26-1.91,3.15-2.15,4.84-1.17,8.22,2.5,14.12,9.4,18.23,4.22,2.51,5.61,1.69,5.63-3.24.03-8.98,0-17.96,0-26.94ZM392.3,540.94c3.68-1.46,5.75-.47,6.94,2.83.47,1.3,1.72,2.49,2.91,3.32,1.09.77,2.57.99,3.88,1.45.37-1.21,1.04-2.42,1.05-3.64.06-7.3.22-14.62-.21-21.9-.15-2.52-1.7-5.05-2.94-7.39-1.04-1.96-2.57-3.67-4.46-6.29,2.83-.23,4.18-.13,5.38-.51.78-.25,1.78-1.12,1.89-1.83.12-.77-.46-2.19-1.1-2.46-4.18-1.78-8.47-3.33-13.35-5.2v41.63ZM202.35,657.14c-.13.38-.5.98-.5,1.58.03,8.66.01,17.33.26,25.99.04,1.43,1.38,2.79,1.94,4.26.8,2.1,2.36,4.48,1.94,6.37-.92,4.18-3.08,8.06-4.3,12.2-.37,1.26.27,3.88,1.16,4.26,5.61,2.45,8.34.6,9.07-5.46.79-6.56-1.37-13.89,4.98-19.07.57-.47.48-1.89.49-2.88.05-5.83.2-11.67-.06-17.49-.07-1.52-1.14-3.66-2.39-4.32-3.86-2.05-8.02-3.52-12.59-5.44ZM244.48,690.54c.85.15,1.17.28,1.48.25.32-.03.72-.12.92-.34,6.25-6.67,12.8-13.17,12.6-23.35-.1-5.32-.03-10.65-.02-15.97,0-10.61.08-10.46-9.67-5.85-4.17,1.97-5.81,4.61-5.68,9.31.28,10.8-.04,21.62-.06,32.43,0,1.23.3,2.46.45,3.53ZM217.47,587.53c.06,0,.11,0,.17,0,0-7.48-.06-14.96.02-22.44.05-5.29-4.03-7.58-7.68-9.44-1.08-.55-4.22,2.61-6.22,4.3-2.38,2.02-1.94,4,.64,5.59,1.84,1.13,3.82,2.08,5.5,3.41,3.07,2.44,6.12,5.39,4.63,9.65-1.5,4.29-5.49,3.21-8.99,2.9-1.11-.1-2.99.42-3.31,1.16-.5,1.2-.38,3.01.19,4.22.6,1.25,2.36,1.92,3.04,3.16.64,1.17,1.1,3.01.62,4.11-.9,2.06-2.54,3.8-3.88,5.67,2.3.16,4.61.24,6.89.53,1.24.16,2.43.68,3.65,1.04-.36,1.19-.44,2.57-1.13,3.52-1.26,1.74-2.99,3.12-4.3,4.82-1.66,2.16-3.1,4.49-4.63,6.75,2.83-.23,5.71-.24,8.49-.73,4.5-.8,6.78-3.16,6.41-8.28-.48-6.62-.12-13.29-.12-19.94ZM287.22,737.47c-.38.85-.86,1.42-.86,2-.06,7.99-.1,15.98,0,23.97.01,1.04.62,2.26,1.33,3.06,2.95,3.33,5.98,6.6,9.11,9.76,1.03,1.04,2.43,1.7,3.81,2.63.56-1.14.95-1.57.95-2.01.04-10.15.1-20.3-.06-30.45-.02-1.28-.92-3.17-1.96-3.69-3.93-1.98-8.08-3.5-12.33-5.28ZM393.19,767.86c-.34.2-.68.4-1.03.6v36.31c13.33-2.25,14.72-3.8,14.82-15.77,0-.83-.05-1.67.05-2.49.63-5.16.28-9.45-6.26-10.77-1.89-.38-3.36-2.98-4.95-4.64-.96-1-1.77-2.15-2.64-3.23ZM448.34,617.77c.94-5.05,1.98-9.95-.63-14.77-4.69-8.67-5.24-17.28.12-25.98,2.08-3.38,2.06-7.1.3-11.48-9.06,6.3-13.25,14.87-13.3,24.75-.05,10.92,4.72,20.26,13.51,27.48ZM310.99,765.9c.58-.24,1.15-.47,1.73-.71,1.62,1.04,3.2,2.15,4.87,3.12,3.91,2.29,5.38,1.45,5.42-3.1.04-3.98,0-7.97-.05-11.95-.13-9.87-.13-9.59-9.76-9.49-4.72.05-6.31,1.78-5.77,6.22.2,1.64.06,3.32.04,4.98-.09,7.46-.36,14.93-.15,22.39.04,1.41,1.97,2.76,3.03,4.14.43-1.5,1.23-3.01,1.23-4.51,0-3.69-.37-7.39-.59-11.08ZM238.2,653.91c-.47-.32-.93-.63-1.4-.95-4.11,2.62-8.3,5.12-12.26,7.95-.85.61-1.19,2.37-1.22,3.61-.11,6.31-.14,12.62.05,18.93.04,1.24.82,3.09,1.8,3.56,2.76,1.36,12.82-4.24,12.92-7.35.29-8.58.1-17.17.1-25.75ZM241.96,631.77c3.92,1.31,16.11-.74,16.26-2.94.56-8.09,1.42-16.58-.53-24.23-.9-3.53-8.02-5.48-13.57-8.93,0,4.99.14,8.71-.04,12.41-.19,3.83-.42,7.46,5.07,7.12.8,7.03-3.56,11.64-7.19,16.57ZM428.02,783.54s-.06,0-.09,0c0-3.99.01-7.98,0-11.96,0-1.93,0-4.02-2.94-3.04-8.87,2.94-12.54,8.32-12.16,17.68.03.83.1,1.66.12,2.49.24,10.3.25,10.24,10.31,10.95,3.18.22,4.75-.97,4.76-4.15.02-3.99,0-7.98,0-11.96ZM360.6,494.3c0,.73,0,1.46,0,2.19-2.55.93-5.13,1.77-7.62,2.82-1.18.5-2.85,1.18-3.16,2.15-1.81,5.64.17,8.27,6.07,8.7,1.48.11,3.01.26,4.41.73,3.26,1.1,4.77.09,4.73-3.37-.1-7.16.06-14.33-.39-21.47-.09-1.44-2.17-3.55-3.69-3.92-2.5-.62-5.52-.7-7.86.2-1.54.59-3.01,3.24-3.14,5.06-.1,1.45,1.54,3.64,2.99,4.46,2.3,1.29,5.09,1.7,7.67,2.48ZM337.48,570.42c4.24-4.43,6.19-10.61,5.97-19.89-.05-2.12-.61-5.48-1.93-6.08-3.54-1.61-7.62-2.08-11.51-2.83-.36-.07-1.38,1.16-1.38,1.8-.07,5.82-1.04,11.93.44,17.37,1,3.7,5.49,6.45,8.42,9.63ZM384.59,588.05c.46-.17.92-.35,1.38-.52-.52-1.91-.42-4.63-1.67-5.58-3.61-2.73-7.77-4.75-12.95-7.77.37,3.35.41,5.55.9,7.64.77,3.25,1.35,5.93-.89,9.31-3.12,4.69-.49,13.5,4.35,16.13,2.69,1.46,7.62,3.36,8.76,2.24,3.4-3.35-.7-6.06-2.73-8.69-3.94-5.12-4.61-10.27-1.7-15.31,1.52.85,3.03,1.7,4.55,2.55ZM343.54,486.33c-.99-.67-1.98-1.35-2.97-2.02-.76,1.65-1.3,3.45-2.34,4.9-1.24,1.72-2.63,3.91-4.43,4.54-4.95,1.74-5.49,5.11-5.46,9.7.08,15.13.11,10.2,11.6,8.14,1.37-.25,3.38-2.27,3.44-3.54.33-7.22.16-14.47.16-21.71ZM599.91,646.56c-.68-.18-1.37-.36-2.05-.54-1.08,8.47-3.43,16.01-13.41,19.68.9-3.5,2.02-5.82,1.94-8.09-.08-2.14-1.42-4.23-2.21-6.34-.64.18-1.28.36-1.92.53-.35,7.2-.84,14.41-.99,21.62-.07,3.55,1.98,3.72,4.63,2.12,8.85-5.37,13.83-13.24,14.91-23.48.19-1.78-.57-3.65-.9-5.48ZM259.47,740.09c.07-5-8.78-12.71-13.36-11.9-.75.13-1.57.6-2.08,1.17-5.07,5.55-3.75,11.28,3.33,13.92,2.13.8,4.51.98,6.78,1.38,3.88.68,5.67-.98,5.33-4.57ZM371.25,798.86c.07.47.14.95.21,1.42,1.33.2,2.7.26,3.99.63,2.26.64,4.47,1.46,6.7,2.21-1.45,2.22-2.63,4.72-4.44,6.59-1.57,1.62-4.64,2.1-5.63,3.87-1.13,2.02-.7,4.91-.95,7.43,1.17.11,2.57.68,3.48.24,9.45-4.47,14.22-18.39,9.72-28.03-4.38,1.89-8.73,3.76-13.08,5.64ZM357.74,565.95c.54-.02,1.08-.04,1.61-.05,1.04-2.36,2.41-4.63,3.05-7.1,1.1-4.24,1.94-8.57,2.4-12.91.09-.85-2.16-2.81-3.22-2.74-3.09.21-6.26.87-9.14,2.02-1.27.51-2.32,2.54-2.64,4.05-.16.74,1.59,1.88,2.46,2.85,1.12,1.24,2.76,2.32,3.23,3.78,1.06,3.26,1.54,6.72,2.25,10.09ZM476.31,721.67c.56.04,1.12.09,1.68.13.51-4.49,1.2-8.97,1.48-13.48.42-6.63.25-6.5,6.83-4.7,1.35.37,3.08-.67,4.64-1.06-.7-1.82-1.01-4.87-2.18-5.25-5.02-1.62-9.9-3.05-12.45-8.42v32.78ZM511.72,669.69c2.96-10.18-2.99-22.04-12.04-24.58-.75-.21-2.72,1.03-2.72,1.59,0,2.61-.38,5.9,1,7.7,4.07,5.3,8.92,10.01,13.76,15.29ZM188.48,588c2.42-1.37,5.74-2.33,7.37-4.53.85-1.15-.6-5.75-2.19-6.6-3.41-1.82-7.57-2.25-11.44-3.16-.25-.06-.97.62-.99.98-.21,3.41-1,7.01-.14,10.15.38,1.39,4.14,1.86,7.39,3.16ZM337.96,533.32c2.54,4.05,4.31,6.96,8.54,3.5.61-.5,2.3-.74,2.64-.35,4.55,5.12,7.01,1.63,9.2-2.23,6.24,2.35,9.8-.55,8.96-7.16-9.59,2.04-19.14,4.07-29.34,6.24ZM323,524.22c2.14.15,3.84.51,5.47.35,10.19-1.03,20.38-2.12,30.56-3.31,2.02-.24,3.98-.99,5.96-1.5-2.14-1.21-4.18-2.76-6.47-3.5-1.08-.35-2.63.98-4.02,1.29-1.14.26-2.85.68-3.48.11-2.97-2.66-5.35-1.68-7.89.55-.63.55-1.84,1.01-2.56.78-6.09-1.94-10.75,3.09-16.37,3.29-.26,0-.49.76-1.2,1.93ZM428.03,522.55c-.48-.45-1.95-3.01-3.45-3.03-10.25-.15-11.67.86-11.81,6.38-.09,3.74.49,6.65,5.24,6.58,7.34-.11,10.03-2.17,10.02-9.93ZM455.83,614.35c-2.46,6.08-1.5,10.13,3.33,13.83,2.1,1.61,4.23,3.17,6.41,4.68,3.09,2.14,4.4,1.1,4.59-2.48.29-5.5-7-13.76-14.33-16.02ZM531.69,613.54c3.46-8.5-3.57-21.44-12.95-25.14-2.36,12.19,9.92,16.23,12.95,25.14ZM476.87,630.42c-2.64,7.86,3.69,15.9,13.51,17.6,2.68-7.9-1.45-13.38-13.51-17.6ZM197.16,691.14c-.18-.69-.36-1.37-.53-2.06-1.35-.43-2.76-1.35-4.04-1.19-2.42.29-4.74,1.41-7.16,1.82-8.03,1.33-8.04,1.27-4.19,8.18,2.78,4.98,3.43,5.22,7.9,1.42,2.89-2.46,5.36-5.42,8.02-8.16ZM493.58,730.95c-.34-.37-.68-.75-1.01-1.12-3.55,2.28-6.83,5.56-10.72,6.61-5.87,1.59-6.63,5.14-6.25,10.05.26,3.39,1.84,4.16,4.58,2.37,6.68-4.37,10.04-11.15,13.4-17.91ZM322.74,507.08s.02,0,.03,0c0-1.32.28-2.72-.06-3.95-.52-1.86-1.31-5.02-2.26-5.13-3.16-.35-6.44.38-9.66.83-.26.04-.7,1.32-.49,1.72,2.67,5.06,5.14,10.27,8.33,15,1.44,2.14,3.71,1.19,4.06-1.54.29-2.28.06-4.62.06-6.93ZM518.28,693.2c7-5.16,6.97-22.53,0-28.08v28.08ZM511.89,690.46c-4.58,2.39-9.08,4.33-13.06,7.04-1.23.84-1.42,3.82-1.25,5.75.06.7,2.74,1.92,3.95,1.65,10.23-2.26,12.34-3.81,10.36-14.44ZM511.37,589.19c2.14-4.78,1.53-8.06-1.56-10.72-2.25-1.94-4.59-3.83-7.11-5.37-1.49-.92-3.42-1.13-5.15-1.66.17,2.17-.51,5.14.65,6.35,3.83,3.98,8.33,7.32,13.17,11.41ZM244.19,760.5c-.02,6.41.98,7.15,6.89,5.05,2.02-.72,4.19-1.24,5.97-2.36,1.05-.66,2.14-2.36,2.02-3.47-.11-1.06-1.59-2.36-2.75-2.84-1.8-.74-3.87-.76-5.78-1.27-5.63-1.49-6.33-.98-6.36,4.88ZM196.65,646.61c-.14-.02-.29-.05-.43-.07,0-.83.17-1.7-.03-2.47-.54-2.11-1.23-4.17-1.86-6.26-1.7,1.2-3.43,2.36-5.09,3.62-.65.49-1.08,1.26-1.69,1.81-2.71,2.47-2.64,4.86.36,6.92,2.34,1.61,4.87,2.95,7.31,4.42.48-2.65.96-5.31,1.43-7.96ZM559.59,669.48c1.12,3.19,1.35,7.48,3.54,9.07,2.21,1.6,6.44.92,9.63.37,1.12-.19,2.21-2.9,2.51-4.6.16-.89-1.29-2.8-2.27-3-3.82-.8-7.74-1.11-13.42-1.83ZM407.12,594.04c-3.65-3.82-6.62-6.98-9.66-10.09-.93-.95-2.01-1.76-3.03-2.63-.85,1.13-2.46,2.3-2.4,3.37.18,2.97.08,7.31,1.87,8.55,3.7,2.56,8.54,2.66,13.22.8ZM287.55,592.68c-1.13,4.86,2.35,10.31,8.49,12.66,1.47.56,3.46-.21,5.21-.37-.56-2.72-.22-6.77-1.87-7.89-3.37-2.3-7.82-3.03-11.83-4.4ZM183.41,608.46c4.3-1.6,7.61-2.65,10.71-4.13.85-.4,1.47-2.17,1.4-3.25-.04-.62-1.63-1.44-2.63-1.63-2.75-.52-5.56-.75-8.35-1.1-4.54-.58-4.93,3.03-4.88,5.76.02,1.48,2.44,2.92,3.75,4.35ZM470.71,563.64c-.95-1.23-1.86-3.32-2.62-3.26-4,.29-8.05.84-11.88,1.97-.86.25-1.16,3.12-1.29,4.81-.05.64,1.22,2.04,1.72,1.96,4.03-.63,8.06-1.4,12.01-2.44.79-.21,1.23-1.74,2.08-3.03ZM181.24,671.18c-.07,5.34.78,6.01,5.89,5.14,1.63-.28,3.39-.12,4.89-.69,1.5-.57,2.74-1.79,4.1-2.73-1.12-1.19-2.05-2.77-3.42-3.46-1.88-.95-4.19-1.03-6.16-1.85-4.14-1.71-5.56-.11-5.3,3.59ZM407.63,571.1c.67-5.44-3.16-6.8-6.85-7.95-1.44-.45-3.19.08-4.8.17.12,1.86-.34,4.08.51,5.51,1.13,1.9,3.17,3.35,5.03,4.7,1.23.89,2.83,1.28,4.27,1.89.61-1.44,1.22-2.87,1.83-4.31ZM478.5,561.28c-.93.87-2.63,1.85-2.5,2.44.37,1.71,1.07,3.87,2.38,4.73,2.3,1.5,5.1,2.36,7.8,3.11,1.49.42,3.2.07,4.81.06-.49-1.94-.36-4.85-1.59-5.64-3.14-2-6.89-3.06-10.9-4.7ZM418.57,551.48c1.48-.34,4.14-.72,6.6-1.63.95-.35,1.78-1.83,2.02-2.93.09-.43-1.48-1.52-2.45-1.84-2.79-.92-5.64-1.76-8.52-2.31-1.01-.19-2.79.22-3.22.94-2.07,3.5.45,7.72,5.57,7.77ZM516.77,630.02c-.44.31-.88.63-1.31.94,1.31,2.16,2.17,5.01,4.07,6.27,1.61,1.07,4.44.46,6.71.3,1.56-.11,3.15-.59,4.62-1.17.93-.37,2.17-1.09,2.37-1.88.28-1.14.02-2.65-.58-3.66-.24-.4-2.27-.26-3.05.27-3.73,2.54-7.13,2.11-10.56-.55-.56-.43-1.5-.36-2.27-.52ZM384.98,788.79c.85-2.79,2.19-5.8-2.17-7.38-2.76-1-5.6-1.8-8.34-2.85-2.72-1.05-4.26.24-3.6,2.6.5,1.78,2.41,3.63,4.17,4.48,2.87,1.39,6.13,2,9.94,3.15ZM354.42,802.06c.85.71,2.09,2.58,3.6,2.82,4.04.66,7.61-2.06,7.55-5.21-.08-4.32-3.46-4.85-6.57-5.14-4.69-.43-3.77,3.48-4.58,7.52ZM387.01,762.69c-1.57-2.42-2.81-4.35-4.06-6.27-1.92,2.36-4.99,4.57-5.35,7.15-.22,1.59,3.69,3.76,5.75,5.67,1.11-1.98,2.22-3.97,3.66-6.54ZM405.76,490.35c-4.08-.45-7.92-1-11.77-1.19-.66-.03-1.93,1.47-1.95,2.29-.02,1.11.6,2.71,1.47,3.27,2.97,1.9,9.59-.41,12.25-4.37ZM571.46,627.83c-3.49.25-6.42.25-9.25.79-.93.18-2.16,1.73-2.2,2.69-.04.88,1.19,2.3,2.16,2.63,3.56,1.22,7.58-1.23,9.3-6.11ZM170.07,709.34c2.72-3.23,4.91-5.21,6.13-7.67.36-.73-2.03-2.82-3.16-4.28-1.58,2.49-3.31,4.89-4.62,7.51-.33.67.7,2.01,1.65,4.44ZM375.24,565.72c.52,4.16,7.35,10.46,11,10,.67-.08,1.62-.68,1.8-1.25.2-.59-.14-1.83-.63-2.11-4-2.3-8.1-4.44-12.17-6.63ZM181.61,634.01c-2.64,1.65-4.82,3.02-7,4.38,1.86.91,3.8,2.66,5.54,2.49,1.81-.19,3.43-2.25,5.13-3.49-1.02-.94-2.05-1.89-3.67-3.38ZM372.58,736.36c-.62.12-1.23.25-1.85.37.43,1.75.3,4.26,1.41,5.09,2.47,1.83,5.42,1.88,7.95-1.18-2.7-1.54-5.11-2.91-7.51-4.28ZM443.53,797.64c-3.02-.62-6.1-1.24-9.18-1.87-.09,1.07-.17,2.14-.26,3.21,3.01.17,6.03.34,9.04.49.03,0,.07-.3.4-1.84ZM433.29,523.46c.87.23,1.73.46,2.6.69.9-2.57,1.96-5.1,2.58-7.73.16-.69-1-2.34-1.68-2.41-.84-.09-2.43.87-2.59,1.62-.56,2.55-.64,5.21-.91,7.82ZM159.47,675.48c2.5-.17,3.89.1,4.84-.42,1.44-.78,2.73-1.99,3.76-3.28.29-.37-.57-1.65-.91-2.51-1.56.61-3.29.97-4.63,1.9-1.04.72-1.58,2.15-3.06,4.31ZM250.02,708.09c1.95,1.36,2.84,2.48,3.74,2.5,1.64.03,3.38-.41,4.91-1.05.48-.2.44-1.67.64-2.56-1.63-.26-3.28-.77-4.89-.71-1.13.05-2.23.88-4.4,1.81ZM299.24,582.26c.99-.31,1.98-.61,2.97-.92-.73-2.22-1.42-4.46-2.32-6.61-.05-.12-1.83.47-2.8.74.72,2.27,1.43,4.53,2.15,6.8ZM363.59,582.43c.49-.7.97-1.41,1.46-2.11-2.9-1.87-5.81-3.75-8.71-5.62-.39.56-.77,1.12-1.16,1.67,2.8,2.02,5.61,4.04,8.41,6.06ZM203.75,724.98c.79-.15,1.58-.31,2.37-.46-.2-1.94-.4-3.89-.61-5.83-1.1.25-2.19.5-3.29.75.51,1.85,1.02,3.69,1.52,5.54ZM365.39,776.9c-.88-.22-1.77-.44-2.65-.67-.45,2.09-.94,4.17-1.22,6.28-.02.14,1.59.5,2.44.75.48-2.12.95-4.24,1.43-6.37Z"/>
      <path class="cls-1" d="M39.57,355.51c.81-30.95,1.66-63.75,2.53-96.55.17-6.33.32-12.66.61-18.98.23-5.09,1.46-5.69,5.69-3.2,53.85,31.63,107.71,63.25,161.57,94.87,51.28,30.1,102.57,60.17,153.79,90.36,3.05,1.8,5.17,1.65,8.15-.12,36.39-21.59,72.87-43.03,109.31-64.52,46.05-27.15,92.1-54.31,138.13-81.49,23.38-13.81,46.72-27.68,70.07-41.54,3.72-2.21,4.24-.07,4.35,2.99.46,12.64,1.16,25.28,1.42,37.92.67,32.14,1.58,64.29,1.6,96.43.04,56.37-1.73,112.69-13.35,168.09-4.3,20.48-11.09,40.43-16.74,60.62-1.12,4.01-3.1,4.31-6.61,2.24-39.72-23.46-79.51-46.81-119.29-70.17-51.14-30.02-102.29-60.02-153.43-90.03-5.46-3.2-10.75-6.72-16.39-9.55-1.81-.91-4.98-.9-6.71.11-45.42,26.58-90.74,53.34-136.06,80.1-50.48,29.81-100.96,59.64-151.39,89.53-3.68,2.18-5.55,1.56-7.04-2.51-12.44-34-19.23-69.24-23.67-105.06-5.67-45.75-6.04-91.72-6.55-139.55ZM353.76,424.61c.14-.48.29-.95.43-1.43-2.02-1.28-4.13-2.44-6.05-3.85-10.84-7.97-22.65-10.39-36.31-10.3-86.6.55-173.21.24-259.81.07-4.41,0-6.19,1.41-5.82,5.71.13,1.49.13,3,.05,4.49-.21,4.31,1.8,5.72,6.06,5.71,39.97-.12,79.94-.12,119.91-.08,59.45.06,118.91.18,178.36.25,1.06,0,2.12-.37,3.17-.57ZM381.72,423.37c.22.44.44.88.66,1.33,3.61,0,7.22,0,10.84,0,38.66,0,77.32,0,115.98,0,58.16,0,116.32-.03,174.47.09,4.61,0,7.02-1.22,6.63-6.15-.1-1.31.16-2.66.27-3.99.29-3.76-1.18-5.34-5.21-5.32-36.49.15-72.98.19-109.48.16-49.49-.03-98.99.22-148.47-.45-15.49-.21-29.67,1.74-42.05,11.59-1.19.95-2.44,1.82-3.66,2.73ZM382.82,431.11c-.12.43-.24.85-.36,1.28.99.79,1.9,1.71,2.97,2.35,4.86,2.89,9.65,5.95,14.71,8.45,2.71,1.34,5.92,2.36,8.91,2.37,91.59.12,183.18.08,274.78.16,3.81,0,5.68-1.17,5.55-5.06-.04-1.33-.06-2.69.19-3.99.83-4.37-.84-5.99-5.31-5.98-53.29.06-106.58,0-159.87-.04-45.96-.02-91.92-.04-137.89-.03-1.23,0-2.45.32-3.68.49ZM353.62,432.47c-.19-.5-.38-1.01-.56-1.51-1.09-.18-2.18-.52-3.27-.51-17.65.08-35.3.3-52.96.29-81.44,0-162.89-.08-244.33-.08-1.58,0-4.5.46-4.54.94-.4,3.87-.69,7.87,0,11.65.2,1.08,3.73,2.2,5.73,2.2,87.11.14,174.21-.02,261.32.41,11.51.06,21.6-1.95,30.82-8.7,2.44-1.78,5.19-3.14,7.79-4.69ZM417.36,401.76c.16.51.32,1.02.48,1.53,1.07.2,2.14.56,3.22.56,48.97-.03,97.93-.08,146.9-.14,38.64-.04,77.28-.1,115.92-.11,6.93,0,7.07-.05,6.98-6.85q-.1-8.35-8.44-8.23c-.67,0-1.33,0-2,0-76.78.03-153.57.13-230.35-.02-7.1-.01-13.39,1.1-19.27,5.19-4.28,2.98-8.95,5.39-13.44,8.05ZM317.43,403.6c.35-.64.69-1.28,1.04-1.92-.88-.44-1.79-.84-2.65-1.33-6.2-3.56-12.34-7.25-18.63-10.64-1.66-.9-3.81-1.26-5.73-1.26-24.14-.04-48.29.05-72.43.07-55.78.05-111.56.13-167.35.05-4.45,0-6.1,1.61-5.77,5.84.12,1.49.03,3-.05,4.49-.21,3.67,1.51,4.91,5.12,4.9,41.46-.11,82.93-.13,124.39-.15,44.96-.03,89.92-.03,134.88-.04,2.39,0,4.79,0,7.18,0ZM416.32,452.09c1.55,1.36,2.36,2.33,3.38,2.92,5.21,2.97,10.33,6.13,15.76,8.62,3.49,1.6,7.46,3.05,11.22,3.07,41.99.24,83.99.19,125.98.22,36.66.02,73.32.02,109.99.12,3.52,0,5.37-1.24,5.44-4.84.02-1.33.14-2.66.23-3.99.44-6.32.15-6.65-5.95-6.65-23.5,0-46.99.05-70.49,0-63.98-.12-127.96-.29-191.94-.4-.88,0-1.77.44-3.62.93ZM318.52,452.89c-.21-.44-.43-.89-.64-1.33-3.75,0-7.5,0-11.25,0-82.8.05-165.6.1-248.41.14-10.77,0-10.9.2-9.33,11,.44,3.02,1.76,4.27,4.91,4.25,13.83-.11,27.65-.02,41.48-.02,60.98,0,121.96-.24,182.93.19,11.41.08,21.72-1.2,30.87-8.33,1.69-1.31,3.81-2.05,5.66-3.17,1.32-.8,2.52-1.81,3.77-2.72ZM453.62,382.31c1.31.13,2.68.38,4.05.38,36.99-.02,73.99-.12,110.98-.11,39.16.02,78.32.12,117.48.26,3.35.01,5.03-1.24,5.09-4.58.03-1.67-.05-3.34.1-5,.44-4.81-1.63-6.23-6.44-6.22-67.66.14-135.31.04-202.97.15-11.54.02-19.22,8.57-28.29,13.96-.07.04,0,.32,0,1.17ZM282.9,381.91c-1.62-1.42-2.43-2.39-3.46-2.98-5.93-3.38-11.83-6.82-17.92-9.9-2.12-1.07-4.72-1.67-7.11-1.67-66.29-.07-132.58-.03-198.87-.02-10.16,0-10.04-.02-9.99,10.05.02,3.9,1.48,5.24,5.37,5.21,15.49-.12,30.98.02,46.47.05,60.46.1,120.91.19,181.37.25,1.04,0,2.09-.48,4.14-.99ZM454.29,472.86c-.21.57-.41,1.15-.62,1.72,5.1,2.93,10.46,5.5,15.23,8.89,4.62,3.27,9.37,4.37,14.94,4.34,29.48-.19,58.95-.11,88.43-.11,35.97,0,71.94-.02,107.92.11,4.28.02,6.18-1.58,6.17-5.77,0-1.32.22-2.66.42-3.97.61-3.89-.97-5.42-4.95-5.41-36.8.1-73.61.09-110.41.11-36.64.03-73.28.06-109.91.09-2.4,0-4.81,0-7.21,0ZM283.81,474.92c-.47-.75-.95-1.51-1.42-2.26-4,0-8,0-12,0-71.66-.01-143.33-.02-214.99-.04-5.63,0-6.07.45-5.45,6.01.13,1.16.34,2.32.34,3.48.03,4.14,1.85,5.77,6.19,5.76,66.5-.09,132.99-.04,199.49-.09,1.94,0,4.1-.28,5.77-1.17,6.33-3.35,12.48-7.02,18.73-10.51,1.02-.57,2.22-.8,3.34-1.19ZM488.79,361.21c1.83.19,3.23.47,4.62.47,18.14-.09,36.29-.33,54.43-.32,45.94.02,91.89.16,137.83.18,1.55,0,4.35-.57,4.43-1.16.55-4.05,1.03-8.26.36-12.22-.18-1.07-4.41-2.06-6.78-2.06-53.27-.07-106.55.57-159.8-.33-14.01-.24-23.12,7.78-34.04,13.16-.43.21-.53,1.09-1.06,2.29ZM246.59,360.83c-1.74-1.55-2.56-2.56-3.61-3.17-5.32-3.1-10.58-6.34-16.1-9.04-2.86-1.4-6.21-2.53-9.34-2.54-39.47-.15-78.93-.09-118.4-.06-15.82.01-31.64.18-47.46.05-4.33-.04-6.18,1.63-6.03,5.83.05,1.5.04,3-.06,4.49-.27,3.96,1.59,5.05,5.42,5.05,63.61-.03,127.22.07,190.83.12,1.22,0,2.45-.36,4.75-.72ZM489.81,494c-.16.51-.32,1.01-.48,1.52,5.68,3.27,11.23,6.83,17.11,9.7,3.59,1.75,7.69,3.46,11.57,3.48,51.79.22,103.58.13,155.37.13,9.55,0,9.42-.02,10.88-9.42.65-4.17-.56-5.88-4.88-5.77-6.66.17-13.32-.03-19.98-.03-55.62-.06-111.24-.11-166.85-.14-.91,0-1.83.35-2.74.54ZM246.93,495.33c-.18-.5-.36-.99-.54-1.49-.92-.19-1.84-.54-2.76-.53-18.15.13-36.3.44-54.45.44-44.14,0-88.27-.17-132.41-.17-1.46,0-4.18,1.05-4.17,1.57.08,3.94.15,8.05,1.42,11.69.45,1.29,4.2,2,6.45,2,49.8.06,99.61-.28,149.4.16,10.16.09,18.92-1.84,27.07-7.67,3.15-2.25,6.65-4.01,9.99-5.99ZM524.88,338.4c.17.61.34,1.23.52,1.84,1.58,0,3.15,0,4.72,0,30.3-.03,60.59-.05,90.89-.08,21.47-.02,42.95-.14,64.42-.02,4.19.02,5.84-1.52,5.41-5.58-.12-1.15-.09-2.33-.04-3.49.17-4.14-1.49-5.82-5.93-5.81-41.62.12-83.24.26-124.85-.18-8.89-.09-16.66,1.36-23.85,6.56-3.54,2.56-7.52,4.53-11.3,6.77ZM208.85,339.72c.15-.45.3-.89.45-1.34-2.97-1.83-5.83-3.88-8.94-5.44-5.42-2.73-10.97-7.29-16.52-7.36-44.28-.61-88.58-.36-132.87-.31-1.39,0-3.91.54-3.99,1.09-.55,3.88-1.04,7.91-.48,11.73.15.99,4.12,2,6.33,2.01,50.62.08,101.24.03,151.86-.01,1.39,0,2.78-.24,4.16-.37ZM525.81,515.09l-.44,1.68c6.54,3.81,13,7.76,19.65,11.35,2.24,1.2,4.97,2.09,7.48,2.09,39.44.07,78.89-.02,118.33-.1,8.57-.02,8.57-.08,10.11-8.4,1.21-6.51.9-6.84-5.68-6.85-48.43-.07-96.86-.16-145.29-.21-1.39,0-2.77.29-4.16.45ZM210.35,516.82c-.21-.52-.42-1.05-.62-1.57-1.26-.15-2.52-.44-3.78-.44-47.47-.01-94.93.01-142.4.01-9.13,0-8.82-.08-7.57,8.98.7,5.1,2.85,6.53,7.81,6.5,37.47-.21,74.95-.35,112.42-.04,8.19.07,15.32-1.41,21.95-6.22,3.81-2.76,8.11-4.84,12.19-7.23ZM560.24,318.02l.51,1.15c4.56,0,9.12,0,13.68,0,35.64,0,71.27,0,106.91,0,9.63,0,9.47.03,8.95-9.71-.22-4.02-1.67-5.5-5.77-5.48-27.14.15-54.3.65-81.42-.12-13.13-.37-25.01,1.38-35.65,9.34-1.32.99-2.95,1.55-4.34,2.45-1.03.67-1.91,1.57-2.86,2.37ZM175.36,319.37c-1.55-1.79-2.04-2.72-2.8-3.17-6.31-3.71-12.6-7.49-19.08-10.9-1.95-1.03-4.45-1.39-6.71-1.39-31.32-.07-62.65-.02-93.97-.01-6.27,0-6.57.4-6.52,9.14.03,6.11.39,6.37,6.57,6.37,37.49-.03,74.98-.02,112.47-.03,2.89,0,5.78,0,10.04,0ZM560.44,536.64c2.14,1.66,3.05,2.53,4.1,3.14,4.59,2.69,9.07,5.66,13.91,7.82,3.79,1.69,8.03,3.26,12.09,3.3,25.3.25,50.6,0,75.89.02,8.54,0,8.54.13,10.5-7.85,1.62-6.57,1.4-6.87-5.24-6.89-35.61-.12-71.23-.23-106.84-.32-.92,0-1.84.31-4.42.77ZM175.34,536.65c-2.17-.41-3.08-.74-3.99-.74-35.79.02-71.58.12-107.37.06-4.36,0-5.92,1.35-4.45,5.6.38,1.09.66,2.26.76,3.41.44,4.83,3.04,6.08,7.76,6.03,23.47-.24,46.95-.45,70.41.04,9.32.19,17.73-.98,25.3-6.7,2.36-1.78,5.24-2.87,7.8-4.42,1.11-.67,1.99-1.7,3.78-3.28ZM596.25,296.36c.16.48.32.97.48,1.45.91.19,1.82.54,2.74.53,27.47-.06,54.93-.17,82.4-.24,8.02-.02,8.02.02,8.14-8.28.09-6.28-.43-6.81-6.77-6.79-16.65.05-33.33.74-49.94-.07-10.93-.54-20.23,2.01-28.83,8.4-2.56,1.9-5.47,3.34-8.22,4.99ZM137.72,298.12c.41-.66.82-1.32,1.22-1.98-1.02-.5-2.06-.96-3.05-1.51-5.94-3.35-11.83-6.79-17.82-10.05-1.41-.77-3.12-1.4-4.69-1.4-20.64-.04-41.28.05-61.92.09-3.13,0-4.62,1.42-4.42,4.59.07,1.16.09,2.33,0,3.49-.5,6.86-.51,6.8,6.57,6.79,25.3-.03,50.6-.01,75.9-.02,2.73,0,5.47,0,8.2,0ZM596.15,557.28c1.25,1.33,1.84,2.33,2.72,2.85,6.3,3.7,12.6,7.42,19.05,10.85,1.8.96,4.13,1.26,6.23,1.28,11.63.09,23.27,0,34.91-.02q10.51-.01,13.69-10.12c1.39-4.41.65-5.34-3.92-5.36-22.93-.09-45.86-.24-68.8-.32-1.04,0-2.09.44-3.88.85ZM139.39,558.6c-.18-.46-.36-.92-.54-1.38-.75-.19-1.51-.55-2.26-.54-21.15.08-42.31.34-63.46.23-11.93-.06-9.82.5-7.6,10.08.9,3.89,2.77,5.43,6.93,5.35,11.66-.23,23.33-.31,34.98.15,6.12.24,11.36-.99,16.4-4.45,4.99-3.42,10.35-6.31,15.55-9.43ZM631.95,275.36c.19.5.38,1,.57,1.5,1.1.15,2.19.44,3.29.44,14.3.02,28.59,0,42.89,0,10.86,0,10.77.01,10.48-10.65-.09-3.36-1.36-4.9-4.75-4.84-4.82.1-9.68.47-14.46,0-10.77-1.06-20.26,1.61-28.85,8.17-2.79,2.13-6.09,3.6-9.16,5.38ZM103.65,276.88c-1.9-1.67-2.83-2.79-4.02-3.49-5.86-3.45-11.76-6.85-17.73-10.12-1.4-.77-3.12-1.33-4.7-1.35-8.3-.1-16.61.01-24.91.02-3.03,0-4.69,1.26-4.59,4.47.04,1.49-.09,2.99-.19,4.47-.39,5.59.3,6.33,5.94,6.36,15.11.1,30.22.21,45.34.28,1.23,0,2.45-.32,4.86-.65ZM632.4,578.44c.87,1.36,1.13,2.29,1.73,2.65,8.15,4.83,16.28,9.69,24.61,14.2.95.51,3.9-.67,4.45-1.79,1.58-3.26,2.22-6.96,3.59-10.34,1.69-4.17.15-5.42-3.92-5.39-8.98.05-17.96-.12-26.95-.13-.91,0-1.82.41-3.51.81ZM103.76,579.34c-.91-.77-1.27-1.35-1.64-1.35-9.98.01-19.97,0-29.95.19-2.85.06-2.98,2.11-2.23,4.33,1.07,3.15,2.27,6.27,3.19,9.46,1.07,3.72,2.75,4.32,6.15,2.24,7.09-4.34,14.42-8.3,21.61-12.48,1-.58,1.81-1.5,2.86-2.4ZM667.89,254.12c.17.65.35,1.3.52,1.96,4.87,0,9.75.21,14.6-.1,1.86-.12,5.04-1.19,5.21-2.22.51-3.14-.11-6.47-.45-9.71-.02-.23-1.64-.69-2.15-.4-5.95,3.42-11.83,6.97-17.73,10.48ZM65.37,255.84c.22-.55.44-1.1.67-1.64-4.04-2.42-8.02-4.93-12.13-7.21-1.32-.73-2.96-.89-4.46-1.31-.42,2.22-1.25,4.46-1.11,6.64.08,1.23,1.7,3.28,2.75,3.36,4.74.37,9.52.16,14.28.16Z"/>
      <path class="cls-1" d="M368.88,225.58c-105.32,0-210.65,0-315.97,0-7.25,0-7.18.01-6.93-7.21,1.51-42.44,2.98-84.89,4.5-127.33.49-13.65,1.2-27.29,1.57-40.93.12-4.47,2.17-5.57,6.27-5.56,66.49.09,132.98.08,199.48.07,85.99-.01,171.98-.04,257.97-.09,54.66-.03,109.32-.06,163.98-.19,3.99,0,5.7,1.22,5.85,5.38,1.57,41.11,3.27,82.21,4.94,123.32.63,15.48,1.28,30.95,1.93,46.42.24,5.72-.16,6.17-6.12,6.17-62.99,0-125.99,0-188.98-.01-42.83,0-85.66,0-128.49,0,0-.01,0-.02,0-.03ZM578.46,209.19c1.53-1.42,2.95-2.51,4.11-3.84,18.67-21.47,37.22-43.05,56.02-64.39,3.04-3.45,2.77-5.58-.14-8.77-7.84-8.61-15.38-17.48-23.01-26.28-11.34-13.07-22.68-26.15-33.95-39.28-2.31-2.69-4.17-2.77-6.4.07-2.36,3.01-4.93,5.84-7.48,8.7-16.8,18.9-33.61,37.8-50.42,56.68-2.17,2.43-4.3,4.51-1.16,8.02,19.77,22.05,39.38,44.24,59.08,66.36.84.95,1.97,1.63,3.34,2.73ZM157.14,209.47c1.38-1.32,2.52-2.25,3.47-3.34,19.08-22.01,38.1-44.07,57.25-66.02,2.51-2.88,1.77-4.74-.41-7.24-19.14-21.95-38.23-43.96-57.23-66.04-2.35-2.73-3.99-2.88-6.34-.14-5.31,6.19-10.77,12.25-16.19,18.36-14.25,16.06-28.48,32.14-42.77,48.17-1.83,2.06-3.03,3.75-.68,6.38,19.82,22.25,39.54,44.59,59.32,66.88.94,1.06,2.19,1.85,3.58,3ZM302.77,181.53c.28-2.05.48-2.56.37-2.99-.19-.8-.55-1.56-.87-2.32-9.96-23.98-6.08-45.99,10.94-65.06,22.19-24.86,58.93-30.7,88.89-15.6,30.78,15.52,45.18,52.44,30.85,81.52-.39.79-.36,1.8-.81,4.26,2.1-1.97,3.33-2.76,4.07-3.87,10.58-15.92,15.64-33.17,11.13-52.2-5.97-25.18-22.4-41.27-45.62-51.32-31.85-13.79-73.41-5.33-96.88,19.88-21.56,23.15-24.19,56.24-6.51,82.4,1.06,1.57,2.43,2.92,4.45,5.3ZM665.57,134.79s.01,0,.02,0c0,8.33.02,16.65,0,24.98-.04,17.99.02,35.97-.23,53.96-.06,4.64,1.54,6.36,6.12,5.91,3.13-.31,6.34-.23,9.48,0,4.56.32,5.83-1.84,5.52-6.04-.47-6.3-.63-12.63-.88-18.95-1.83-46.24-3.64-92.47-5.46-138.71-.21-5.26-1.02-5.59-8.61-5.73-4.56-.08-6.07,1.56-6.04,6.14.17,26.15.08,52.29.08,78.44ZM427.7,170.81c.36.12.72.25,1.09.37.58-1.07,1.44-2.08,1.71-3.22,4.08-16.88,2.41-33.02-8.24-47.09-21.91-28.93-59.25-35.95-90.62-17.55-22.2,13.02-33.67,40.71-26.71,64.55.43,1.46,1.12,2.85,1.7,4.27.46-.07.92-.14,1.38-.21.12-1.7.42-3.4.32-5.09-.63-10.86,2.98-20.39,9.53-28.75,17.4-22.21,51.44-29.89,77.55-17.25,19.93,9.65,32.57,24.54,31.94,48.05-.02.64.23,1.28.35,1.92ZM475.81,135.2s.1,0,.15,0c0,26.32-.02,52.63.05,78.95,0,1.55.55,4.34,1.16,4.43,3.88.57,7.92,1.02,11.74.42,1.05-.17,2.12-4.08,2.13-6.27.13-37.14.08-74.29.1-111.43,0-15.16,0-30.32.2-45.47.06-4.12-1.43-5.91-5.54-5.52-1.16.11-2.33.02-3.5.02-6.32.01-6.49.2-6.49,6.43,0,26.15,0,52.3,0,78.45ZM244.21,135.02s-.09,0-.13,0c0,26.13-.03,52.27.06,78.4,0,1.86.6,5.21,1.32,5.33,4.01.64,8.21.92,12.18.3.96-.15,1.85-4.2,1.85-6.46.06-50.94,0-101.88-.04-152.81,0-9.39,0-9.22-9.52-9.39-4.31-.08-5.83,1.31-5.8,5.73.16,26.3.08,52.6.08,78.9ZM265.38,134.57h-.13c0,26.31.11,52.63-.1,78.94-.04,4.94,1.74,6.73,6.42,6.22,1.15-.13,2.33-.17,3.49-.1,3.78.24,5.34-1.32,5.34-5.27-.04-52.96,0-105.92.12-158.88,0-3.95-1.57-5.52-5.37-5.18-1.16.1-2.35.28-3.49.15-4.7-.54-6.44,1.2-6.39,6.18.22,25.98.1,51.96.1,77.94ZM238.4,135.36h-.14c0-25.14,0-50.28,0-75.42q0-9.85-9.91-9.54c-.33.01-.67,0-1,0-2.92.01-4.13,1.48-4.12,4.38.05,24.31.05,48.61.06,72.92,3.89,6.04,3.84,12.07-.06,18.08.03,23.14.06,46.28.08,69.43,0,3.08,1.4,4.65,4.55,4.56,1.5-.04,3.01-.14,4.49,0,4.49.43,6.15-1.35,6.12-6.01-.18-26.14-.09-52.28-.09-78.41ZM75.8,134.57c0,26.16,0,52.32,0,78.48,0,6.39.15,6.51,8.04,6.5,6.52,0,6.85-.33,6.87-6.69.05-20-.06-39.99.27-59.98.08-5.13-.52-9.41-4.44-13.1-1.06-1-1.62-4.5-.98-4.99,6.61-5.08,5.13-12.14,5.15-18.86.05-20,.02-39.99.23-59.99.04-4.07-1.23-6-5.4-5.65-1.16.1-2.35.14-3.5,0-4.79-.56-6.38,1.44-6.34,6.28.2,25.99.09,51.99.11,77.98ZM659.55,135.12s-.09,0-.13,0c0-26.14-.1-52.28.09-78.42.04-4.92-1.76-6.73-6.44-6.18-.99.12-2,.08-2.99,0-4.08-.33-5.53,1.47-5.52,5.58.09,23.31-.11,46.62.02,69.93.01,2.42,1.1,5.21,2.57,7.16,1.98,2.62,2.06,4.38.05,7-1.39,1.82-2.49,4.4-2.52,6.65-.21,21.98-.16,43.95-.18,65.93,0,6.66.24,6.89,7.15,6.9,7.68,0,7.89-.17,7.89-6.64,0-25.97,0-51.95,0-77.92ZM54.66,134.52s.09,0,.14,0c-.92,24.28-1.59,48.58-2.87,72.84-.78,14.67-.85,12.01,12.77,12.44,3.92.12,5.33-1.46,5.24-5.32-.22-9.16-.21-18.32-.21-27.48-.01-43.3-.02-86.6.04-129.9,0-3.81.07-6.98-5.27-6.8-6.01.2-6.51.45-6.76,6.89-1.01,25.78-2.04,51.55-3.07,77.33ZM470.09,134.95h-.19c0-26.32.02-52.65-.05-78.97,0-1.55-.55-4.37-1.13-4.45-3.87-.53-7.89-.86-11.71-.31-.92.13-1.87,3.87-1.88,5.95-.11,43.49-.07,86.97-.08,130.46,0,9-.03,18-.21,26.99-.07,3.61,1.34,5.32,4.99,5.12,1.33-.07,2.68-.14,4,0,4.78.52,6.39-1.5,6.35-6.32-.19-26.16-.09-52.31-.09-78.47ZM497.08,134.67s.08,0,.13,0c0,26.15,0,52.3,0,78.45,0,6.16.29,6.42,7.08,6.43,7.85.02,8.09-.16,8.1-6.44.05-19.99-.06-39.98.2-59.96.07-5.29-.64-9.73-4.82-13.48-1.05-.94-1.37-4.72-.57-5.37,5.67-4.55,5.27-10.58,5.23-16.82-.11-20.32-.12-40.64.16-60.96.07-4.98-1.76-6.7-6.4-6.21-.82.09-1.66.01-2.5.02-6.35.04-6.63.36-6.63,6.89,0,25.82,0,51.64,0,77.45ZM364.99,169.94c0-13.49,0-26.98,0-40.47q0-9.26-9.17-7.5c-.16.03-.33.07-.49.08-4.24.41-5.88,2.62-5.86,6.99.14,28.31.14,56.63.01,84.94-.02,4.37,1.58,6.18,5.87,5.77,1.32-.13,2.67-.13,3.99,0,4.39.43,5.79-1.52,5.73-5.84-.2-14.65-.08-29.31-.09-43.97ZM370.74,169.98c0,14.49-.04,28.98.05,43.47.01,1.72.48,4.83,1.13,4.94,3.83.65,7.84.99,11.65.48.9-.12,1.88-3.88,1.89-5.97.13-27.15.07-54.3.09-81.44,0-8.36.04-8.36-8.36-9.76-5.86-.98-6.44-.53-6.44,5.31-.01,14.32,0,28.65,0,42.97ZM391.83,172.56s-.1,0-.15,0c0,12.65-.11,25.3.04,37.95.1,9.16.25,9.27,9.56,8.96,1.85-.06,4.86-1.03,5.23-2.23.72-2.33-.04-5.12-.19-7.72-1.96.43-3.92.85-5.88,1.3-.48.11-.99.58-1.39.49-1.47-.35-2.9-.87-4.35-1.32.43-1.3.48-3.04,1.37-3.83,2.22-1.98,5.23-3.17,7.15-5.36,1.8-2.04,3.67-4.93,3.71-7.49.31-15.98-.48-31.99.32-47.93.43-8.59-2.91-13.33-9.98-16.87-4.67-2.34-5.43-2.11-5.44,3.1-.03,13.65,0,27.3,0,40.95ZM343.66,173.45c0-13.99.02-27.97-.02-41.96,0-1.97.92-4.91-2.75-4.49-5.86.66-12.57,8.73-12.53,14.6.09,16.15.58,32.32-.06,48.44-.27,6.72,2.04,10.53,7.34,13.8,2.06,1.27,5.04,4.96,4.56,5.78-2.2,3.77-5,.88-7.54-.41-2.93-1.48-4.27-.63-4.37,2.75-.21,7.1.32,7.77,7.29,7.77.83,0,1.67-.06,2.5.03,4.03.43,5.71-1.18,5.66-5.39-.17-13.64-.06-27.28-.07-40.93ZM97.17,120.02c1.21-.59,2.25-.78,2.81-1.41,3.43-3.84,6.9-7.66,10.03-11.74,1.13-1.47,1.92-3.6,1.94-5.44.19-15.46.14-30.91.24-46.37.02-3.43-1.58-4.85-4.86-4.75-1.49.05-3,.13-4.49-.01-4.62-.43-6.45,1.26-6.39,6.23.22,20.11.04,40.22.04,60.33,0,.91.38,1.82.68,3.16ZM215.43,121.55c.48-.18.95-.36,1.43-.54.17-1.24.48-2.47.48-3.71.04-19.94.04-39.88.06-59.83,0-7.08-.04-7.14-7.3-7.15-.5,0-1,0-1.5,0-6.27.02-6.56.31-6.55,6.37.02,15.12.02,30.25.08,45.37,0,1.46-.07,3.3.72,4.32,4.04,5.17,8.36,10.13,12.58,15.17ZM638.33,122.59c.42-1.96.79-2.87.78-3.78-.11-19.64-.3-39.29-.38-58.93-.04-9.99,1-9.24-9.42-9.5-4.7-.12-6.11,1.57-6,6.09.25,10.15.79,20.37-.1,30.45-1.09,12.44.6,23.39,10.8,31.74,1.29,1.06,2.47,2.24,4.3,3.93ZM98.58,152.8c-.67.28-1.35.56-2.02.85,0,2.75,0,5.5,0,8.26.04,16.99.08,33.99.11,50.98.01,6.33.33,6.65,6.87,6.66.67,0,1.33,0,2,0,6.05-.03,6.43-.43,6.45-6.62.04-12.16-.58-24.37.32-36.47.89-11.9-9.36-15.69-13.73-23.66ZM518.94,119.38c.47.27.95.54,1.42.81,4.29-5.45,8.61-10.88,12.82-16.39.42-.55.24-1.62.24-2.45-.03-15.48-.12-30.96-.1-46.44,0-3.19-1.27-4.64-4.47-4.45-1.49.09-3.02.19-4.49,0-4.49-.57-6.19,1.04-6.14,5.8.23,19.97.1,39.95.14,59.93,0,1.07.38,2.13.58,3.2ZM217,151.73c-1.42.6-2.35.71-2.8,1.23-3.7,4.28-7.42,8.55-10.87,13.02-.92,1.19-1.31,3.08-1.31,4.65-.04,14.81.08,29.63.07,44.44,0,3.16,1.29,4.65,4.46,4.53,1.5-.06,3.01-.17,4.49,0,4.83.58,6.37-1.5,6.33-6.29-.15-18.81.06-37.62.09-56.42,0-1.55-.27-3.11-.46-5.16ZM638.71,152.21c-.61-.28-1.21-.55-1.82-.83-4.38,5.5-8.78,10.97-13.08,16.52-.45.58-.43,1.6-.43,2.42-.06,14.99-.1,29.98-.14,44.97,0,3.1,1.45,4.62,4.61,4.48,1.5-.07,3-.02,4.5-.03,6.35-.03,6.54-.25,6.52-6.38-.07-17.82-.1-35.64-.14-53.46,0-2.56,0-5.12,0-7.69ZM520.07,153.43c-.58.19-1.16.37-1.73.56,0,3.76,0,7.51,0,11.27.04,16.3.16,32.61.07,48.91-.02,4.04,1.45,5.94,5.57,5.58,1.16-.1,2.34-.13,3.49,0,4.69.55,6.06-1.64,5.96-6.11-.26-11.97-1.04-24.04.07-35.91,1.13-12.04-8.18-16.7-13.43-24.29ZM447.39,107.91c.52-.13,1.05-.26,1.57-.38.19-1.22.55-2.44.54-3.66-.08-14.45-.33-28.9-.32-43.35,0-12.01.23-9.79-10.23-10.13-3.82-.12-5.5,1.17-5.29,5.17.25,4.8.4,9.66.02,14.44-.84,10.69-.28,20.83,8.44,28.65.36.32.59.81.83,1.24,1.48,2.67,2.96,5.35,4.43,8.02ZM286.97,107.86c5.1-6.97,9.61-13.05,13.98-19.23.61-.86.69-2.22.7-3.36.04-10.15-.05-20.29.01-30.44.02-3.17-1.36-4.61-4.49-4.52-1.83.05-3.67.13-5.49-.03-4.2-.36-5.45,1.58-5.42,5.61.11,15.96-.05,31.93-.06,47.89,0,1.07.39,2.13.77,4.07ZM448.7,170.53c-.39-.11-.77-.21-1.16-.32-1.83,3.02-3.11,6.63-5.6,8.94-8.04,7.47-9.23,16.73-8.26,26.81.13,1.32.02,2.66.02,3.99,0,9.79,0,9.58,9.68,9.83,4.77.12,5.99-1.82,5.94-6.21-.16-13.13,0-26.27-.02-39.4,0-1.22-.38-2.43-.59-3.65ZM287.4,169.68c-.69,1.37-1.21,1.92-1.21,2.47.06,14.61.09,29.22.42,43.83.03,1.2,1.95,3.12,3.24,3.37,2.72.52,5.67.46,8.41,0,1.2-.2,3.1-2.05,3.04-3.06-.77-12.77,4.37-26.81-7.79-37.28-1.54-1.33-2.18-3.68-3.32-5.51-.72-1.15-1.59-2.2-2.79-3.82ZM194.46,97.22c.47-.24.93-.47,1.4-.71.13-1.39.37-2.78.37-4.18.01-10.99-.04-21.98-.04-32.96,0-9.3-.02-9.33-9.49-9.05-.33,0-.67.02-1,.01-3.15-.08-4.49,1.48-4.45,4.6.09,6.16.42,12.35-.06,18.47-.48,6.13,1.25,11,5.61,15.24,2.74,2.66,5.11,5.7,7.65,8.58ZM615.52,96.93c.55-.11,1.09-.23,1.64-.34.14-1.56.39-3.11.4-4.67.02-10.66-.02-21.32-.02-31.97,0-9.96,0-9.81-9.84-9.7-4.21.05-5.54,1.77-5.34,5.77.25,5.15.78,10.44-.05,15.46-2.03,12.24,7.3,17.82,13.22,25.45ZM539.25,96.24c1.77-.83,2.64-.99,3.14-1.5,7.39-7.55,14.73-15.09,12.11-27.17-.48-2.22-.07-4.64-.07-6.97,0-10.85-.04-10.84-10.8-10.2-3.11.18-4.5,1.41-4.44,4.59.12,6.32.05,12.64.05,18.96,0,7.11,0,14.22,0,22.3ZM196.46,197.37c.09,0,.17,0,.26,0,0-5.82.08-11.64-.06-17.45-.03-1.31-.83-2.6-1.27-3.9-1.08.63-2.29,1.1-3.21,1.9-9.13,7.95-13.44,17.72-11.19,29.95.15.8.02,1.66.02,2.49q-.01,9.66,9.49,9.56c.33,0,.67,0,1,.02,3.62.2,5.08-1.55,5.01-5.12-.13-5.82-.03-11.64-.03-17.46ZM118.5,95.7c.74,0,1.13.11,1.38-.02.57-.31,1.15-.68,1.6-1.15,7.03-7.44,13.9-14.9,11.37-26.54-.59-2.7-.09-5.64-.08-8.47,0-9.11,0-8.97-9.36-9.29-4.11-.14-5.62,1.24-5.56,5.44.17,12.32-.01,24.64,0,36.96,0,1.06.44,2.12.65,3.08ZM617.24,176.66c-.56-.31-1.12-.63-1.68-.94-4.32,5.5-8.66,10.98-12.9,16.55-.43.56-.26,1.62-.26,2.44.01,6.66.15,13.33.05,19.99-.05,3.35,1.23,5.03,4.65,4.92,1.33-.04,2.68-.15,4,.01,4.76.59,6.53-1.32,6.45-6.19-.19-11.16.1-22.32.16-33.48,0-1.1-.29-2.2-.45-3.29ZM539.79,177.63c-.21,1.14-.56,2.2-.57,3.25-.05,9.62-.05,19.24-.05,28.86,0,10.47.04,10.41,10.52,10.02,3.68-.14,4.96-1.77,4.88-5.26-.13-5.3-.06-10.61-.03-15.92.04-6.17-8.19-18.11-14.75-20.95ZM119.84,176.82c-.54.24-1.08.47-1.62.71-.13,1.1-.36,2.19-.36,3.29.05,9.64.17,19.28.21,28.92.04,10.28,0,10.17,10.05,10.03,3.72-.05,5-1.61,4.86-5.17-.19-4.65-.64-9.39.02-13.95,1.71-11.79-8.48-16.09-13.15-23.83ZM307.46,65.92h-.07c0,3.98-.03,7.96.01,11.94.03,2.63,1.08,3.87,3.72,2.31,7.44-4.39,14.56-8.99,11.73-19.56-.08-.31-.01-.66-.01-.99.01-9.42,0-9.27-9.54-9.37-4.21-.05-6.21,1.27-5.89,5.72.24,3.3.05,6.63.05,9.95ZM427.82,66.39s-.07,0-.1,0c0-2.16,0-4.33,0-6.49.02-9.66-.82-10.37-10.57-9.62-3.08.24-4.51,1.57-4.45,4.69.08,4.49-.42,9.04.17,13.46.31,2.29,2.09,4.69,3.82,6.42,1.96,1.96,4.56,3.3,6.98,4.75.9.54,2.37,1.14,3.03.76.71-.41,1.03-1.93,1.07-2.98.12-3.66.05-7.32.05-10.98ZM413.08,189.06c4.88-2.63,8.78-13.13,8.53-22.61-.21-8.08-2.29-15.59-6.89-22.1-.54.15-1.09.29-1.63.44v44.27ZM322.49,144.24c-10.37,6.35-12.1,36.04,0,45.24v-45.24ZM427.98,207.77s.06,0,.08,0c0-2.65-.02-5.29,0-7.94.03-3.38-1.25-4.37-4.19-2.31-2.71,1.9-5.41,3.79-8.07,5.76-2.7,2-4.34,12.02-2.24,14.64.71.88,2.22,1.56,3.38,1.58,10.78.18,11.31,1.64,11.03-9.74-.02-.66,0-1.32,0-1.99ZM307.45,207.27s.07,0,.11,0c0,1.99-.28,4.04.08,5.96.39,2.09,1.23,5.71,2.14,5.79,3.98.38,8.33.48,12.01-.83,2.55-.91,1.03-12.61-1.59-14.54-2.93-2.16-5.96-4.19-8.96-6.26-2.41-1.66-3.72-1.01-3.78,1.91-.05,2.65-.01,5.31-.01,7.96ZM407.05,59.97q-.01-9.83-9.77-9.65c-1,.02-2.07-.11-2.97.22-.85.31-1.81.98-2.21,1.76-2.63,5.19.53,11.84,5.97,14.16,10.63,4.54,9.06,1.37,8.98-6.48ZM138.71,72c.68.35,1.35.7,2.03,1.04,4.41-5.58,9.25-10.89,13.03-16.86,1.81-2.86.04-5.81-4.16-5.75-2.31.03-4.71-.35-6.92.13-1.46.32-3.74,1.76-3.8,2.81-.36,6.19-.18,12.41-.18,18.62ZM594.51,73.18c.71-.2,1.41-.39,2.12-.59,0-4.18,0-8.36,0-12.55q.02-10.08-10.16-9.73c-4.86.17-7.07,3.13-4.46,7.08,3.69,5.58,8.29,10.56,12.5,15.79ZM328.52,59.87q-.02,9.28,8.72,6.44c.63-.2,1.28-.34,1.91-.55,3.87-1.26,6.36-11.39,3.48-14.3-.43-.44-1.11-.71-1.72-.89-8.73-2.51-12.37.23-12.39,9.29ZM173.43,73.22c.6-.33,1.21-.66,1.81-.98,0-4.08-.04-8.17,0-12.25.14-10.93.48-9.43-9.74-9.51-4.99-.04-7.4,2.73-4.88,6.74,3.61,5.75,8.48,10.71,12.81,16.01ZM560.66,71.58c.55.24,1.1.48,1.65.72,4.17-4.79,8.8-9.26,12.35-14.47,2.91-4.26.42-7.58-4.79-7.45-1.98.05-4.03-.18-5.92.26-1.21.28-3.1,1.51-3.14,2.39-.27,6.17-.15,12.36-.15,18.55ZM140.66,200.41c-.68.3-1.37.59-2.05.89,0,2.72.02,5.44,0,8.17-.11,11.09-1.35,10.25,11.64,10.24.49,0,1.27.04,1.42-.22.71-1.22,2.12-3.22,1.72-3.73-4.07-5.25-8.44-10.26-12.73-15.34ZM175.19,200.81c-.53-.24-1.06-.48-1.58-.72-3.86,4.44-7.81,8.8-11.53,13.36-.94,1.15-1.99,3.54-1.47,4.24.85,1.15,2.89,1.7,4.52,1.94,2.11.31,4.37.39,6.44-.05,1.34-.29,3.41-1.62,3.47-2.6.34-5.37.16-10.78.16-16.17ZM596.37,201.21c-.53-.22-1.06-.45-1.59-.67-2.55,2.9-5.32,5.65-7.59,8.76-2.01,2.76-3.47,5.92-5.17,8.91,3.65.46,7.3,1.12,10.96,1.24,1.11.04,3.2-1.38,3.25-2.21.3-5.33.15-10.68.15-16.02ZM562.25,200.83c-.6.3-1.2.59-1.79.89,0,4.25-.26,8.51.12,12.72.16,1.77,1.62,4.82,2.59,4.86,3.82.16,7.68-.62,11.49-1.22.15-.02.43-2.11-.04-2.68-4.03-4.93-8.23-9.73-12.37-14.58ZM385.69,56.91c-.02-6.35-.32-6.59-7.8-6.58-6.53,0-7.11.5-7.07,6,.04,5.07,2.64,6.55,11.5,6.46,4.87-.05,2.75-3.9,3.36-5.88ZM357.44,50.51c-3.66.11-7.97-1.21-7.83,5.17.15,7.04.16,7.29,7.2,6.4,1.15-.15,2.31-.29,3.47-.3,3.26-.03,4.72-1.37,4.66-4.87-.11-6.18-.17-6.4-7.5-6.4Z"/>
      <path class="cls-1" d="M263.62,306.26c0-15.32.09-30.64-.06-45.97-.04-4.27,1.42-5.38,5.74-6.63,5.23-1.51,9.89-5.58,14.28-9.17,2.21-1.81,3.68-3.17,6.34-1.31,8.37,5.86,17.46,5.22,26.87,3.26,9.74-2.04,19.56-4.59,29.41-4.89,5.83-.18,11.99,3.11,17.59,5.71,2.93,1.36,4.74,2.03,7.53-.07,8.21-6.18,17.41-7.74,27.44-5.33,8.41,2.02,16.88,3.8,25.37,5.48,7.15,1.42,13.95.19,20.13-3.73,2.92-1.86,4.79-1.4,7.24,1.19,4.52,4.79,9.36,9.34,16.76,9.47,1.16.02,2.67,2.05,3.3,3.47.56,1.25.14,2.94.14,4.44.1,29.64.21,59.28.3,88.93.02,7.28-.21,7.47-7.61,7.47-24.65-.02-49.3,0-73.95-.12-3.7-.02-6.44.82-9.16,3.73-8,8.55-19.51,8.16-27.98.03-2.01-1.93-5.35-3.46-8.09-3.49-25.15-.25-50.3-.25-75.44-.03-5,.04-6.26-1.86-6.19-6.47.2-15.32.08-30.64.08-45.97,0,0-.01,0-.02,0ZM289.47,248.57c-.4.87-.66,1.17-.65,1.47.11,27.63.29,55.25.3,82.88,0,3.7,1.45,5.91,4.6,7.49,6.08,3.04,12.48,3.38,19,2.26,8.19-1.42,16.34-3.12,24.53-4.55,8.81-1.54,17.23-.61,24.93,4.39.71.46,1.78.37,3.16.63.11-1.82.29-3.26.29-4.71-.03-25.63-.08-51.27-.13-76.9-.02-9.52-1.69-12.3-10.82-15.23-3.69-1.19-7.89-1.55-11.77-1.23-5.27.44-10.47,1.83-15.67,2.94-11.89,2.54-23.74,5.79-35.76.61-.54-.23-1.27-.03-2.01-.03ZM445.61,248.44c-1.19.07-1.91-.08-2.44.17-8.46,4.02-17.15,3.32-25.91,1.36-7.14-1.6-14.25-3.44-21.46-4.63-7.18-1.18-14.53-1-20.65,3.47-2.52,1.85-5.44,5.29-5.49,8.05-.46,27.63-.35,55.27-.42,82.91-.01,4.1,1.48,3.55,4.63,2.31,5.32-2.09,11-4.53,16.52-4.5,7.88.04,15.79,1.98,23.62,3.46,8.73,1.65,17.35,3.03,26.07-.13,4.22-1.53,5.82-4.04,5.77-8.6-.23-25.47-.19-50.95-.24-76.42,0-2.41,0-4.81,0-7.46ZM285.73,249.49c-8.62,2.73-11.11,6-11.14,14.06-.09,26.49-.3,52.98-.17,79.47.01,2.15,1.72,4.98,3.52,6.3,5.41,3.97,11.94,4.14,18.26,3.35,11.39-1.44,22.73-3.33,34.08-5.09,12.43-1.93,24.59-2.72,35.27,5.99.89.72,3.47.59,4.43-.18,8.78-7.11,18.95-7.77,29.42-6.39,8.91,1.17,17.69,3.44,26.62,4.39,8.05.85,16.29,1.35,24.3.59,8.61-.82,10.43-3.67,10.39-12.08-.11-25.16-.33-50.31-.46-75.47-.05-9.21-.5-9.92-10.08-13.62-.15,1.36-.41,2.6-.41,3.85-.04,25.99-.05,51.99-.07,77.98,0,6.44-1.67,9.2-7.57,11.34-6.66,2.41-13.46,3.41-20.61,1.93-8.79-1.82-17.66-3.33-26.54-4.66-8.02-1.2-15.77-.16-22.09,5.41-3.69,3.25-6.75,3.3-10.53.27-6.74-5.41-14.5-7.13-23.03-5.54-8.5,1.58-17.02,3.01-25.52,4.58-8.48,1.56-16.55.78-24.09-3.77-2.86-1.73-3.95-4.01-3.92-7.42.25-27.32.33-54.65.44-81.98,0-1.08-.32-2.16-.51-3.29Z"/>
      <path class="cls-1" d="M578.53,186.21c-1.24-.98-2.25-1.57-2.98-2.39-12.98-14.53-25.89-29.13-38.93-43.62-2.17-2.41-2.65-4.36-.38-6.9,13.11-14.64,26.18-29.32,39.23-44.02,2.02-2.28,3.84-2.28,5.81-.01,13.08,15.12,26.17,30.23,39.25,45.34,2.25,2.6.72,4.52-1.05,6.5-9,10.05-17.98,20.12-26.94,30.19-3.54,3.98-7.02,8.03-10.6,11.98-.96,1.06-2.17,1.88-3.41,2.93ZM573.78,172.65c.4-.22.8-.45,1.2-.67v-70.68c-.42-.24-.84-.49-1.26-.73-3.38,3.67-7.08,7.11-10.03,11.11-1.73,2.35-3.06,5.55-3.18,8.42-.36,8.64.58,17.36-.15,25.95-.73,8.55,1.55,15.23,8.05,20.72,2.01,1.7,3.6,3.9,5.38,5.88ZM581.58,172.31c.49.24.98.48,1.47.72,3.61-4.01,7.5-7.81,10.7-12.12,1.64-2.2,2.73-5.29,2.86-8.04.33-7.13-.05-14.28-.07-21.43q-.04-16.57-11.29-28.43c-.79-.83-1.91-1.34-3.67-2.54v71.83ZM554.39,124.35c-.49-.29-.97-.58-1.46-.87-3.4,3.9-6.83,7.79-10.17,11.74-.36.42-.54,1.53-.27,1.87,3.37,4.11,6.85,8.13,10.3,12.18.53-.32,1.06-.64,1.59-.97v-23.95ZM602.72,148.54c.5.33.99.66,1.49.99,3.21-3.82,6.43-7.63,9.6-11.49.25-.3.28-1.13.04-1.42-3.17-4-6.39-7.94-9.61-11.9-.51.31-1.01.63-1.52.94v22.88Z"/>
      <path class="cls-1" d="M612.79,106.76c-2.65,2-4.44,4.31-5.65,4.04-1.78-.4-3.79-2.43-4.39-4.21-.29-.87,2.39-3.89,3.7-3.87,1.74.03,3.45,2.07,6.34,4.04Z"/>
      <path class="cls-1" d="M578.54,203.31c-2.03-2.9-4.07-4.57-4.11-6.28-.03-1.31,2.48-3.72,3.87-3.72,1.5,0,4.21,2.2,4.22,3.46.01,1.74-2,3.5-3.99,6.54Z"/>
      <path class="cls-1" d="M549.37,171.94c-1.97-3.09-3.99-4.89-3.93-6.61.05-1.33,2.86-3.7,4.16-3.53,1.48.19,3.52,2.61,3.7,4.25.16,1.41-1.94,3.08-3.94,5.89Z"/>
      <path class="cls-1" d="M519.51,136.54c2.64-1.94,4.43-4.22,5.71-3.96,1.65.33,2.9,2.69,4.32,4.18-1.41,1.33-2.77,3.64-4.25,3.73-1.51.09-3.14-2.02-5.78-3.94Z"/>
      <path class="cls-1" d="M636.57,136.75c-2.73,1.85-4.48,3.94-5.9,3.74-1.47-.21-3.66-2.67-3.63-4.1.03-1.38,2.43-3.7,3.9-3.79,1.45-.08,3.03,2.11,5.63,4.15Z"/>
      <path class="cls-1" d="M578.17,82.23c-1.81-2.81-3.83-4.56-3.62-6,.22-1.52,2.63-3.87,3.93-3.78,1.47.1,3.75,2.45,3.87,3.97.11,1.45-2.1,3.08-4.19,5.81Z"/>
      <path class="cls-1" d="M612.65,165.88c-2.88,1.83-4.57,3.62-6.38,3.76-1.09.08-2.38-2.42-3.58-3.76,1.57-1.39,2.96-3.4,4.78-3.94.97-.29,2.69,1.95,5.18,3.93Z"/>
      <path class="cls-1" d="M549.35,100.72c2.03,2.63,4.21,4.31,3.94,5.34-.48,1.81-2.47,3.22-3.83,4.8-1.38-1.2-3.92-2.45-3.87-3.59.08-1.8,1.89-3.52,3.76-6.56Z"/>
      <path class="cls-1" d="M200.82,137.23c-.84,1.3-1.34,2.35-2.08,3.19-12.87,14.61-25.79,29.18-38.66,43.79-2.07,2.34-3.82,2.07-5.78-.14-13.17-14.8-26.36-29.59-39.58-44.35-2.09-2.33-1.82-4.4.15-6.6,12.99-14.52,25.98-29.03,38.9-43.61,2.51-2.83,4.27-2.72,6.75.21,12.39,14.59,24.97,29.02,37.45,43.52,1.04,1.21,1.88,2.6,2.86,3.98ZM151.88,172.84c.6-.26,1.21-.51,1.81-.77v-71.34c-.42-.2-.83-.4-1.25-.6-3.58,4.01-7.45,7.81-10.61,12.13-1.72,2.35-3.02,5.56-3.12,8.44-.33,9.8.53,19.66-.15,29.42-.81,11.44,9.38,14.86,13.32,22.72ZM161.99,100.74c-.44.2-.88.41-1.33.61v70.88c.41.15.82.3,1.24.46,3.49-3.9,7.27-7.58,10.35-11.78,1.63-2.22,2.78-5.31,2.89-8.05.35-9.29-.66-18.69.34-27.88,1.31-12.02-8.37-16.57-13.48-24.23ZM132.43,124.76c-.49-.33-.97-.66-1.46-.99-3.19,3.89-6.41,7.76-9.54,11.7-.32.41-.37,1.49-.06,1.88,3.12,3.88,6.35,7.69,9.54,11.51.51-.27,1.01-.54,1.52-.8v-23.3ZM181.65,148.24c.48.35.95.69,1.43,1.04,3.07-3.71,6.17-7.39,9.16-11.15.31-.39.28-1.49-.04-1.89-3.03-3.75-6.15-7.41-9.25-11.1-.43.24-.86.47-1.29.71v22.4Z"/>
      <path class="cls-1" d="M110.05,136.81c-2.92,1.89-4.71,3.95-6.41,3.87-1.33-.06-3.76-3.05-3.5-4.24.37-1.66,2.67-3.72,4.39-3.98,1.28-.19,2.95,2.21,5.52,4.35Z"/>
      <path class="cls-1" d="M157.31,191.06c1.76,2.82,3.74,4.58,3.52,6-.24,1.62-2.46,2.93-3.81,4.38-1.43-1.57-3.68-2.98-4.02-4.77-.24-1.22,2.16-2.96,4.32-5.62Z"/>
      <path class="cls-1" d="M162.79,76.71c-2.63,1.76-4.51,3.95-5.76,3.64-1.72-.44-2.97-2.76-4.42-4.28,1.62-1.35,3.13-3.54,4.89-3.77,1.27-.16,2.88,2.29,5.29,4.41Z"/>
      <path class="cls-1" d="M209.55,130.55c1.91,2.65,4.2,4.48,3.93,5.79-.36,1.75-2.69,3.09-4.18,4.61-1.37-1.6-3.57-3.08-3.83-4.85-.2-1.32,2.11-3.01,4.08-5.54Z"/>
      <path class="cls-1" d="M128.42,101.01c1.84,2.51,4.05,4.39,3.7,5.29-.7,1.81-2.59,3.75-4.4,4.3-.88.27-3.86-2.58-3.76-3.83.15-1.7,2.34-3.22,4.45-5.76Z"/>
      <path class="cls-1" d="M128.25,159.86c1.88,2.93,3.75,4.65,3.88,6.49.08,1.13-2.99,3.74-3.76,3.44-1.81-.71-3.87-2.58-4.29-4.36-.28-1.16,2.12-2.96,4.17-5.57Z"/>
      <path class="cls-1" d="M191.41,107.02c-2.79,1.86-4.75,4.07-5.93,3.72-1.69-.51-3.34-2.73-3.93-4.56-.24-.76,2.51-3.59,3.55-3.41,1.86.32,3.45,2.2,6.3,4.25Z"/>
      <path class="cls-1" d="M191.35,165.59c-2.83,1.98-4.42,3.69-6.31,4.15-.84.2-3.48-2.65-3.24-3.22.79-1.83,2.3-3.82,4.04-4.58.87-.38,2.85,1.8,5.51,3.65Z"/>
      <path class="cls-1" d="M361.4,319.16c-1.24.41-1.82.82-2.13.67-13.08-6.35-25.58-.97-38.36,1.44-7.39,1.39-15.1,1.28-22.67,1.47-1.26.03-2.56-1.89-3.84-2.91,1.53-.33,3.23-1.28,4.55-.9,8.51,2.43,16.43-.99,24.55-2.22,7.53-1.14,14.97-3.28,22.52-3.65,4.52-.22,9.19,2.03,13.73,3.37.64.19.94,1.5,1.66,2.72Z"/>
      <path class="cls-1" d="M293.72,271.15c1.17-1.01,1.32-1.23,1.42-1.21,14.85,3.39,28.43-3.12,42.54-5.49,6.84-1.15,13.65-1.4,20.06,1.68,1.31.63,2.02,2.51,3.01,3.81-1.47-.02-3.14.39-4.39-.15-7.5-3.2-15.06-1.97-22.6-.51-8,1.55-15.92,3.63-23.97,4.85-3.84.58-7.91-.13-11.84-.6-1.34-.16-2.55-1.4-4.23-2.39Z"/>
      <path class="cls-1" d="M360.17,295.02c-3.1-.83-6.28-2.56-9.3-2.33-9.04.69-18.02,2.2-27.03,3.28-8.03.96-16.06,1.96-24.12,2.52-1.8.12-3.73-1.53-5.6-2.37.14-.49.27-.99.41-1.48.86-.23,1.8-.81,2.57-.63,10.33,2.41,20.08-.69,30-2.75,6.8-1.41,13.72-2.45,20.63-2.95,3.16-.23,6.53,1.03,9.65,2.07,1.44.48,2.5,2.07,3.73,3.16l-.95,1.48Z"/>
      <path class="cls-1" d="M374.49,319.08c-.07-4.01,3.33-4.48,5.96-5.23,8.13-2.32,16.19-.89,24.19.97,6.32,1.47,12.58,3.4,18.99,4.29,4.32.6,8.84-.31,13.27-.4,1.15-.02,2.3.52,3.46.8-.84,1-1.68,2.88-2.52,2.88-7.44,0-14.93.12-22.31-.69-5.92-.65-11.68-2.61-17.55-3.86-6.97-1.48-13.88-1.75-20.5,1.61-.55.28-1.28.24-1.93.23-.28,0-.56-.31-1.05-.6Z"/>
      <path class="cls-1" d="M374.19,293.15c1.57-1.04,3.03-2.37,4.74-3.08,9.05-3.77,18.04-1.26,26.94.68,10.86,2.38,21.54,5.94,32.89,3.33.37-.09.86.36,2.88,1.27-2.59,1.33-4.25,2.95-5.82,2.86-8.22-.48-16.45-1.2-24.62-2.23-7.71-.97-15.33-2.74-23.06-3.5-3.13-.31-6.42,1.17-9.65,1.79-1.17.22-2.36.32-3.54.47l-.75-1.61Z"/>
      <path class="cls-1" d="M374.1,268.96c1.39-1.05,2.68-2.84,4.17-3.02,6.18-.73,12.54-1.91,18.62-1.19,9.36,1.11,18.51,3.95,27.85,5.45,3.99.64,8.22-.29,12.34-.37,1.17-.02,2.34.43,3.51.67-.88.99-1.68,2.74-2.65,2.83-4.89.47-9.93,1.24-14.72.54-8.2-1.2-16.22-3.56-24.37-5.15-7.42-1.45-14.86-2-21.94,1.75-.47.25-1.24-.04-1.86-.08-.32-.48-.63-.96-.95-1.44Z"/>
    </g>
  </g>
</svg>