<?xml version="1.0" encoding="UTF-8"?>
<svg id="Layer_2" data-name="Layer 2" xmlns="http://www.w3.org/2000/svg" viewBox="0 0 2080.23 256.23">
  <defs>
    <style>
      .cls-1 {
        fill: #000;
        stroke-width: 0px;
      }
    </style>
  </defs>
  <g id="Layer_1-2" data-name="Layer 1">
    <g>
      <path class="cls-1" d="M139,0c9.92,2,20.17,2.99,29.69,6.16,38.66,12.89,66.9,37.04,79.95,76.79.47,1.42.85,2.87,1.2,4.33.11.46.02.97.02,2.02-5.24,0-10.37,0-15.5,0-13.33,0-26.66-.05-40,.04-2.7.02-4.45-.51-5.96-3.2-11.37-20.42-29.73-30.15-52.23-31.92-33.75-2.66-60.93,13.13-73.53,41.61-14.07,31.8-5.28,70.32,20.81,91.2,25.95,20.77,69.22,20.05,92.89-1.96,4.79-4.46,8.19-10.4,12.39-15.53,1.02-1.24,2.66-2.79,4.02-2.8,18.66-.15,37.32-.05,55.99,0,.3,0,.59.26,1.6.72-1.6,4.72-2.93,9.66-4.91,14.31-16.36,38.33-46.16,61.08-85.79,70.36-51.45,12.04-108.24-4.6-140.84-56.75C7.8,177.81,2.12,158.51.89,137.85c-.18-2.96-.59-5.9-.89-8.85,0-.67,0-1.33,0-2,.29-2.78.73-5.54.86-8.33C3.52,64.79,41.26,18.29,93.62,4.88,102.57,2.59,111.86,1.59,121,0,127,0,133,0,139,0Z"/>
      <path class="cls-1" d="M1627,0c5.19,1,10.44,1.78,15.57,3.05,27.23,6.75,50.29,34.58,50.8,61.43h-25.84c-.43-1.22-.85-2.29-1.18-3.39-7.15-23.22-26.62-36.91-50.93-35.74-10.15.49-19.61,2.95-28.27,8.65-21.41,14.09-17.3,46.4-3.19,56.6,8.39,6.07,17.8,10.96,27.26,15.26,11.64,5.29,24.07,8.85,35.67,14.22,9.74,4.52,19.42,9.71,27.99,16.13,21.45,16.07,27.01,38.86,23.69,64.13-3.24,24.68-18.24,40.83-40.91,49.23-25.88,9.6-52.17,8.93-77.31-2.71-21.98-10.18-36.46-26.98-39.91-51.85-.16-1.15-.29-2.32-.34-3.48-.04-.81.08-1.64.16-3,8.06,0,16.01-.07,23.96.1.9.02,2.27,1.3,2.57,2.26,7.45,24.26,23.29,37.06,48.58,39.26,12.18,1.06,23.92-.19,35.03-5.62,31.12-15.21,26.6-51.59,8.61-66.24-6.72-5.47-14.67-9.77-22.65-13.28-13.38-5.88-27.29-10.58-40.88-16.01-11.19-4.47-21.77-10.18-30.56-18.57-18.98-18.12-22.53-40.79-16.68-64.9,5.78-23.81,23.68-36.04,46.16-42.37,5.4-1.52,11.07-2.13,16.61-3.16,5.33,0,10.67,0,16,0Z"/>
      <path class="cls-1" d="M1138.47,101.51v150.17h-55.05V4.93c3.99,0,8.08,0,12.17,0,10.17,0,20.33.17,30.49-.09,3.58-.09,5.72,1.17,7.87,3.92,37.6,48,75.3,95.92,112.99,143.86.97,1.24,2.02,2.42,3.76,4.5V5.34h55.49v246.66h-17.8c-8.17,0-16.34-.2-24.49.09-3.73.13-6.02-1.08-8.32-4.01-37.44-47.7-75.01-95.3-112.56-142.92-1.09-1.39-2.26-2.71-3.4-4.06-.39.14-.77.28-1.16.41Z"/>
      <path class="cls-1" d="M641.21,251.79V5.29c1.41-.13,2.68-.35,3.95-.35,29.66-.02,59.32-.14,88.97.02,36.46.2,66.04,24.96,72.27,60.84,3.43,19.73-.65,37.76-14.6,52.88-.54.59-1.03,1.23-1.05,1.25,6.35,5.6,13.34,10.41,18.62,16.65,31.31,37.06,13.47,95.83-33.73,111.27-7.03,2.3-14.64,3.84-22,3.92-36.65.41-73.31.22-109.96.23-.65,0-1.3-.12-2.46-.23ZM696.9,152.05v48.86c17.69,0,35,.56,52.26-.19,12.51-.54,21.85-11.93,21.74-24.43-.1-12.34-9.74-23.57-22.24-24.07-17.1-.68-34.25-.17-51.77-.17ZM696.83,104.65c11.73,0,22.89.63,33.95-.16,13.14-.95,21.85-10.27,22.54-22.45.7-12.36-7.17-24.35-18.94-25.61-12.28-1.31-24.8-.29-37.55-.29v48.51Z"/>
      <path class="cls-1" d="M1442.45,123.59c38.97,42.68,77.68,85.08,117.23,128.41h-5.87c-20.17,0-40.33-.09-60.49.08-3.51.03-5.77-1.08-8.09-3.65-30.96-34.24-62.02-68.38-93.07-102.54-1-1.1-2.09-2.11-3.79-3.83v109.58h-55.03V5.2h54.62v103c2.26-2.69,3.52-4.15,4.73-5.65,25.09-30.92,50.23-61.8,75.17-92.85,2.92-3.63,5.86-4.95,10.47-4.89,18.49.27,37,.11,55.49.11,1.6,0,3.21,0,6.03,0-32.9,40.09-65.06,79.27-97.39,118.67Z"/>
      <path class="cls-1" d="M414.22,5.22h55.55c0,2.25,0,4.2,0,6.16,0,47.32-.1,94.64.11,141.96.03,6.58.7,13.42,2.59,19.67,5.8,19.17,23.78,30.51,45.37,29.47,26.86-1.3,44-18.58,44.15-45.49.28-48.49.1-96.98.11-145.46,0-1.97,0-3.94,0-6.26h55.23c.09,1.64.26,3.38.26,5.12.01,47.65.03,95.31,0,142.96-.02,21.21-3.91,41.49-15.88,59.42-18.46,27.64-44.99,41.22-77.74,43.12-16.58.96-33.03-.33-48.6-6.72-36.39-14.92-56.06-42.46-60.32-81.24-.78-7.1-.79-14.3-.8-21.46-.07-44.99-.03-89.98-.03-134.97v-6.3Z"/>
      <path class="cls-1" d="M259.38,5.08h54.85v193.71h102.25v52.92h-157.1V5.08Z"/>
      <path class="cls-1" d="M836.25,251.68V5.31h55.13v193.57h102.24v52.79h-157.37Z"/>
      <path class="cls-1" d="M2080.23,252c-8.85,0-17.02.19-25.16-.17-1.49-.07-3.51-2.06-4.23-3.64-10.35-22.71-20.61-45.46-30.65-68.3-1.54-3.51-3.18-4.95-7.26-4.93-35.99.2-71.99.18-107.99.02-3.79-.02-5.5,1.24-6.96,4.6-9.9,22.73-20.08,45.33-29.96,68.06-1.49,3.44-3.29,4.67-7.03,4.49-7.14-.33-14.31-.1-22.09-.1.9-2.2,1.59-4.02,2.37-5.79,35.04-78.74,70.12-157.45,105.03-236.25,1.77-4,3.79-5.57,8.12-5.16,5.1.49,11.41-1.42,15.08.97,3.67,2.39,4.81,8.76,6.9,13.45,33.87,75.8,67.72,151.6,101.57,227.41.67,1.5,1.28,3.02,2.25,5.32ZM1958.84,42.27c-16.2,36.52-31.9,71.89-47.78,107.7h95.92c-16.01-35.83-31.8-71.15-48.13-107.7Z"/>
      <path class="cls-1" d="M1057.17,251.88h-54.74V5.36h54.74v246.52Z"/>
      <path class="cls-1" d="M1693,5.13h185.56v24.74h-79.52v221.8h-26.34V30.11h-79.7V5.13Z"/>
    </g>
  </g>
</svg>