<?xml version="1.0" encoding="UTF-8"?>
<svg id="Layer_2" data-name="Layer 2" xmlns="http://www.w3.org/2000/svg" viewBox="0 0 416.48 255.88">
  <defs>
    <style>
      .cls-1 {
        fill: #000;
        stroke-width: 0px;
      }
    </style>
  </defs>
  <g id="Layer_1-2" data-name="Layer 1">
    <g>
      <path class="cls-1" d="M139,0c9.92,2,20.17,2.99,29.69,6.16,38.66,12.89,66.9,37.04,79.95,76.79.47,1.42.85,2.87,1.2,4.33.11.46.02.97.02,2.02-5.24,0-10.37,0-15.5,0-13.33,0-26.66-.05-40,.04-2.7.02-4.45-.51-5.96-3.2-11.37-20.42-29.73-30.15-52.23-31.92-33.75-2.66-60.93,13.13-73.53,41.61-14.07,31.8-5.28,70.32,20.81,91.2,25.95,20.77,69.22,20.05,92.89-1.96,4.79-4.46,8.19-10.4,12.39-15.53,1.02-1.24,2.66-2.79,4.02-2.8,18.66-.15,37.32-.05,55.99,0,.3,0,.59.26,1.6.72-1.6,4.72-2.93,9.66-4.91,14.31-16.36,38.33-46.16,61.08-85.79,70.36-51.45,12.04-108.24-4.6-140.84-56.75C7.8,177.81,2.12,158.51.89,137.85c-.18-2.96-.59-5.9-.89-8.85,0-.67,0-1.33,0-2,.29-2.78.73-5.54.86-8.33C3.52,64.79,41.26,18.29,93.62,4.88c8.96-2.29,18.25-3.29,27.38-4.88,6,0,12,0,18,0Z"/>
      <path class="cls-1" d="M259.38,5.08h54.85v193.71h102.25v52.92h-157.1V5.08Z"/>
    </g>
  </g>
</svg>