<?xml version="1.0" encoding="UTF-8"?>
<svg id="Layer_2" data-name="Layer 2" xmlns="http://www.w3.org/2000/svg" viewBox="0 0 1403.83 1392.64">
  <defs>
    <style>
      .cls-1 {
        fill: #000;
      }

      .cls-1, .cls-2 {
        stroke-width: 0px;
      }

      .cls-2 {
        fill: #fff;
      }
    </style>
  </defs>
  <g id="Layer_1-2" data-name="Layer 1">
    <g>
      <path class="cls-1" d="M1403.83,666.03v61.1c-.37,2.15-.96,4.29-1.07,6.46-2.86,57.73-12.64,114.28-30.42,169.24-57.44,177.48-168.24,311.55-330.65,402.7-83.19,46.69-172.85,73.79-267.77,83.34-14.05,1.41-28.13,2.52-42.19,3.77h-59.77c-2.38-.36-4.75-.93-7.14-1.05-60.63-2.98-119.87-13.7-177.67-32.19C162.69,1255.68-38.79,938.73,6.28,602.89c13.75-102.45,48.21-197.62,105.75-283.38C233.34,138.68,402.57,33.72,618.67,5.69c92.41-11.99,183.98-5.06,273.42,20.99,197.91,57.63,344.68,178.3,439.06,361.71,38.23,74.3,60.46,153.63,68.89,236.78,1.38,13.61,2.53,27.24,3.78,40.86ZM688.24,108.11c-28.91.14-70.42,4.31-111.48,13.01-251.66,53.37-439.09,260.37-466.29,515.87-9.03,84.79.68,167.8,28.27,248.57,92.42,270.59,369.06,436.78,653.89,392.54,109.16-16.96,206.38-60.9,291.24-131.72,187.01-156.05,258.09-409.25,179.6-639.11-81.35-238.23-308.01-399.16-575.23-399.17Z"/>
      <path class="cls-2" d="M688.24,108.11c267.22,0,493.88,160.94,575.23,399.17,78.49,229.86,7.41,483.05-179.6,639.11-84.86,70.81-182.08,114.76-291.24,131.72-284.83,44.24-561.47-121.95-653.89-392.54-27.59-80.77-37.29-163.78-28.27-248.57,27.2-255.5,214.64-462.5,466.29-515.87,41.06-8.71,82.57-12.87,111.48-13.01ZM701.99,1205.36c31.73.08,63.23-2.66,94.4-8.51,93.69-17.58,176.15-58.12,247.96-120.85,137.86-120.42,200.06-313.33,158.11-491.74-53.14-225.99-250.73-387.71-482.81-394.87-91.45-2.82-177.79,17.02-258.85,59.65-214.08,112.57-318.94,361.13-249.95,592.6,64.17,215.27,264.18,363.39,491.14,363.72Z"/>
      <path class="cls-1" d="M701.99,1205.35c-226.95-.32-426.97-148.44-491.14-363.71-69-231.47,35.87-480.03,249.95-592.6,81.06-42.62,167.41-62.47,258.85-59.65,232.07,7.16,429.67,168.88,482.81,394.87,41.96,178.41-20.25,371.32-158.11,491.74-71.82,62.73-154.28,103.27-247.96,120.85-31.17,5.85-62.67,8.59-94.4,8.5ZM715.28,1077.82c38.7-.14,88.92-10.04,136.91-30.64,170.25-73.07,262.92-256.04,219.85-433.87-55.66-229.85-307.54-355.23-528.1-255.9-165.17,74.38-252.92,251.8-213.16,427.5,38.55,170.38,193.72,292.88,384.49,292.9Z"/>
      <path class="cls-1" d="M750.38,899.54c-16.86-1.76-29.66-2.73-42.3-4.66-3.66-.56-7.85-3.16-10.18-6.1-15.69-19.76-26.59-42.36-35.76-65.62-8.17-20.74-14.67-42.16-21.35-63.45-.99-3.15-.15-8.43,1.98-10.76,13.27-14.47,27.02-28.49,40.86-42.42,7.94-8,16.42-15.47,24.51-23.33,2.41-2.34,4.23-3.78,7.94-1.94,16.72,8.29,34.14,8.25,51.75,3.28,19.37-5.46,38.74-10.92,58-16.74,6.53-1.97,9.96-1.19,12.88,5.94,8.75,21.35,23.52,38.85,38.11,56.41,10.46,12.59,20.68,25.39,30.7,38.33,1.41,1.82,2.34,5.58,1.42,7.39-14.23,27.98-28.63,55.87-43.4,83.56-4.46,8.36-10.05,16.14-15.41,23.98-1.24,1.82-3.56,3.77-5.61,4.04-32.63,4.34-65.3,8.41-94.15,12.06Z"/>
      <path class="cls-1" d="M629.62,733.4c-1.04-.87-2.57-2.03-3.97-3.34-27.31-25.58-54.68-51.07-87.1-70.37-2-1.19-3.4-4.47-3.88-7-4.98-26.72-9.65-53.51-14.56-80.25-1.39-7.6-2.81-15.26-5.06-22.63-1.85-6.07-.18-9.92,4.61-13.61,19.95-15.39,39.7-31.04,59.6-46.5,12.22-9.49,24.78-18.56,36.75-28.36,4.3-3.52,8.05-4.64,13.09-2.57,20.85,8.57,41.83,16.83,62.58,25.64,11.8,5.01,23.15,11.08,34.89,16.27,4.27,1.88,5.32,4.07,4.46,8.62-6.58,35.01-13.1,70.03-19.2,105.12-2.42,13.93-3.49,28.09-5.72,42.06-.57,3.58-2.45,7.71-5.09,10.06-14.38,12.79-29.54,24.72-43.71,37.73-9.7,8.91-18.23,19.1-27.69,29.14Z"/>
      <path class="cls-1" d="M443.01,548.32c16.14,0,32.28.19,48.42-.12,4.72-.09,7.21.83,8.28,5.93,7.5,35.68,15.54,71.26,22.69,107.01,1.19,5.96-.95,12.64-1.82,18.95-5.19,37.9-10.21,75.82-15.79,113.65-2.52,17.09-2.89,16.01-20.05,13.54-25.56-3.68-51.36-5.69-77.03-8.68-3.03-.35-6.46-1.71-8.7-3.71-12.53-11.2-24.83-22.67-36.98-34.27-1.89-1.8-3.43-4.68-3.8-7.26-9.98-69.6-1.26-136.61,27.95-200.79,1.7-3.73,4-4.38,7.76-4.33,16.36.23,32.72.1,49.08.1,0-.01,0-.02,0-.03Z"/>
      <path class="cls-1" d="M693.47,1048.88c-7.18-.55-21.31-1.43-35.38-2.84-3.06-.31-6.35-1.95-8.84-3.87-19.24-14.88-38.43-29.85-57.29-45.22-2.06-1.68-2.97-6.17-2.65-9.16,1.56-14.27,3.8-28.47,5.65-42.71.65-5.03,1.41-10.15,1.17-15.18-.25-5.29,2.35-6.92,6.79-7.79,31.91-6.24,63.8-12.57,95.71-18.84,1.27-.25,2.66-.35,3.92-.13,36.6,6.51,73.19,3.86,109.78-.06,8.36-.9,16.8-1.12,25.09-2.43,5.93-.94,8.01,1.61,10.04,6.6,11.23,27.72,16.5,56.85,21.1,86.16.24,1.53.33,3.12.83,4.56,1.8,5.22-.36,7.82-5.08,10.29-51.35,26.84-105.96,40.29-170.83,40.62Z"/>
      <path class="cls-1" d="M1049.52,701.46c.05,28.91-3.24,54.49-9.11,79.81-1.25,5.39-3.54,6.81-8.64,5.64-17.88-4.1-35.78-8.08-53.7-12.01-14.46-3.17-28.97-6.08-43.39-9.4-2.51-.58-5.47-2.06-6.88-4.07-14.63-20.79-29.41-41.5-43.25-62.82-8.63-13.3-15.71-27.61-23.51-41.46-2.06-3.65-1.79-6.71.89-10.27,23.48-31.23,48.4-61.04,81.21-83.09,2.46-1.65,6.02-2.66,8.95-2.44,20.7,1.55,41.35,3.71,62.06,5.17,4.45.31,6,2.34,7.54,5.82,18.64,42.05,28.08,86.02,27.82,129.13Z"/>
      <path class="cls-1" d="M928.93,551.83c-.67.77-1.12,1.55-1.79,2.03-32.83,23.57-57.42,54.95-81.72,86.57-2.88,3.75-5.94,5.72-10.66,6.69-21.44,4.42-42.77,9.39-64.15,14.12-14.69,3.25-29.28,4.06-43.89-.83-4.84-1.62-6.68-3.8-5.77-9.1,7.44-43.36,15.43-86.66,21.53-130.21,2.14-15.24,8.3-22.87,22.72-27.5,32.6-10.48,64.72-22.48,97.01-33.93,3-1.06,5.14-1.5,7.05,2.05,16.7,31.08,36.19,60.31,58.48,87.67.52.64.75,1.52,1.19,2.46Z"/>
      <path class="cls-1" d="M604.51,365.44c16.18-3.21,30.55-6.72,45.13-8.86,65.75-9.63,129.31-2.64,189.61,26.63,9.94,4.82,19.57,10.33,29.01,16.07,2.06,1.25,4,4.96,3.76,7.32-1.01,10.1-2.94,20.1-4.36,30.17-.64,4.53-3.16,6.71-7.38,8.21-31.24,11.15-62.41,22.5-93.6,33.79-.42.15-.87.25-1.24.48-15.58,9.67-30.16,7.39-46.59-.1-29.32-13.36-59.83-24.1-89.78-36.07-1.59-.64-3.48-2.26-3.92-3.79-6.85-24-13.48-48.05-20.65-73.84Z"/>
      <path class="cls-1" d="M685.72,893.61c-8.19,1.37-15.34,2.51-22.46,3.75-23.09,4.03-46.16,8.26-69.31,11.93-2.75.43-6.98-1.32-8.82-3.5-18.43-21.78-35.78-44.54-54.95-65.63-12.35-13.58-14.75-26.78-11.26-44.75,5.93-30.55,8.17-61.8,12.05-92.75.98-7.81,2.27-15.58,3.66-24.93,5.95,3.93,10.99,6.62,15.3,10.2,25.7,21.33,51.28,42.81,76.73,64.45,1.97,1.67,3.15,4.75,3.81,7.4,9.81,39.73,24.7,77.52,43.43,113.83,3.32,6.44,7.37,12.51,11.84,20.02Z"/>
      <path class="cls-1" d="M424.83,815.75c24.21,3.79,48.44,7.42,72.6,11.55,3.32.57,6.93,2.98,9.21,5.59,24.3,27.82,48.39,55.82,72.41,83.89,1.4,1.64,2.53,4.39,2.28,6.44-2.71,21.93-5.67,43.84-8.8,65.71-.22,1.51-2.14,3.39-3.7,3.98-10.34,3.89-20.72,7.73-31.27,10.99-2.77.85-6.76.56-9.23-.86-59.39-34.29-105.21-81.67-136.59-142.77-1.07-2.09-1.41-5.23-.71-7.44,3.4-10.75,7.38-21.32,10.91-32.04,1.17-3.54,3.03-4.97,6.78-4.58,5.28.55,10.59.7,15.9,1.02.08-.49.16-.98.24-1.47Z"/>
      <path class="cls-1" d="M885.57,994.86c-1.33-7.47-2.82-14.74-3.9-22.07-3.78-25.67-9.26-50.9-18.12-75.36-.76-2.11-.74-5.61.52-7.18,21.27-26.36,36.31-56.56,53.18-85.63,3.22-5.55,7.07-10.75,10-16.44,2.36-4.59,5.79-4.91,9.96-4.05,14.51,2.99,29.01,5.98,43.5,9.07,17.28,3.68,34.54,7.47,51.88,11.22,1.41,44.78-94.33,169.54-147.01,190.43Z"/>
      <path class="cls-1" d="M588.58,370.87c5.07,19.63,8.48,38.49,14.96,56.22,5.29,14.47,1.34,22.71-10.07,31.5-26.27,20.24-52.26,40.95-77.12,62.89-10.55,9.31-20.73,13.76-34.71,13.09-26.06-1.26-52.18-1.11-78.28-1.6-1.89-.03-3.78-.41-7.25-.8,45.11-77.61,108.08-131.54,192.46-161.3Z"/>
      <path class="cls-1" d="M1009.61,551.17c-12.26-.63-24.36-.87-36.4-1.94-23.71-2.09-24.49-1.72-38.09-21.25-17.8-25.55-34.22-52.07-51.11-78.24-1.12-1.73-2.04-4.22-1.72-6.13,1.67-9.98,3.76-19.89,5.71-29.82,25.16,6.25,117.73,110.15,121.61,137.37Z"/>
      <path class="cls-1" d="M555.4,1014.82c6.61-2.28,13.18-4.69,19.86-6.75,1.45-.45,3.74-.23,4.88.66,11.63,8.98,23.1,18.15,34.2,28.11-20.82-3.87-40.29-11.25-59.35-19.81.14-.73.27-1.47.41-2.2Z"/>
      <path class="cls-1" d="M378.29,831.81c-4.46-13.69-8.92-27.39-13.38-41.08l1.95-1.43c3.2,2.97,6.07,6.42,9.65,8.82,10.59,7.11,13.38,15.75,6.61,27.02-1.18,1.97-1.63,4.38-2.42,6.58-.8.03-1.61.06-2.41.09Z"/>
    </g>
  </g>
</svg>