<?xml version="1.0" encoding="UTF-8"?>
<svg id="Layer_2" data-name="Layer 2" xmlns="http://www.w3.org/2000/svg" viewBox="0 0 1559.69 256.19">
  <defs>
    <style>
      .cls-1 {
        fill: #000;
        stroke-width: 0px;
      }
    </style>
  </defs>
  <g id="Layer_1-2" data-name="Layer 1">
    <g>
      <path class="cls-1" d="M139,0c9.92,2,20.17,2.99,29.69,6.16,38.66,12.89,66.9,37.04,79.95,76.79.47,1.42.85,2.87,1.2,4.33.11.46.02.97.02,2.02-5.24,0-10.37,0-15.5,0-13.33,0-26.66-.05-40,.04-2.7.02-4.45-.51-5.96-3.2-11.37-20.42-29.73-30.15-52.23-31.92-33.75-2.66-60.93,13.13-73.53,41.61-14.07,31.8-5.28,70.32,20.81,91.2,25.95,20.77,69.22,20.05,92.89-1.96,4.79-4.46,8.19-10.4,12.39-15.53,1.02-1.24,2.66-2.79,4.02-2.8,18.66-.15,37.32-.05,55.99,0,.3,0,.59.26,1.6.72-1.6,4.72-2.93,9.66-4.91,14.31-16.36,38.33-46.16,61.08-85.79,70.36-51.45,12.04-108.24-4.6-140.84-56.75C7.8,177.81,2.12,158.51.89,137.85c-.18-2.96-.59-5.9-.89-8.85,0-.67,0-1.33,0-2,.29-2.78.73-5.54.86-8.33C3.52,64.79,41.26,18.29,93.62,4.88c8.96-2.29,18.25-3.29,27.38-4.88,6,0,12,0,18,0Z"/>
      <path class="cls-1" d="M1138.47,101.51v150.17h-55.05V4.93c3.99,0,8.08,0,12.17,0,10.17,0,20.33.17,30.49-.09,3.58-.09,5.72,1.17,7.87,3.92,37.6,48,75.3,95.92,112.99,143.86.97,1.24,2.02,2.42,3.76,4.5V5.34h55.49v246.66h-17.8c-8.17,0-16.34-.2-24.49.09-3.73.13-6.02-1.08-8.32-4.01-37.44-47.7-75.01-95.3-112.56-142.92-1.09-1.39-2.26-2.71-3.4-4.06-.39.14-.77.28-1.16.41Z"/>
      <path class="cls-1" d="M641.21,251.79V5.29c1.41-.13,2.68-.35,3.95-.35,29.66-.02,59.32-.14,88.97.02,36.46.2,66.04,24.96,72.27,60.84,3.43,19.73-.65,37.76-14.6,52.88-.54.59-1.03,1.23-1.05,1.25,6.35,5.6,13.34,10.41,18.62,16.65,31.31,37.06,13.47,95.83-33.73,111.27-7.03,2.3-14.64,3.84-22,3.92-36.65.41-73.31.22-109.96.23-.65,0-1.3-.12-2.46-.23ZM696.9,152.05v48.86c17.69,0,35,.56,52.26-.19,12.51-.54,21.85-11.93,21.74-24.43-.1-12.34-9.74-23.57-22.24-24.07-17.1-.68-34.25-.17-51.77-.17ZM696.83,104.65c11.73,0,22.89.63,33.95-.16,13.14-.95,21.85-10.27,22.54-22.45.7-12.36-7.17-24.35-18.94-25.61-12.28-1.31-24.8-.29-37.55-.29v48.51Z"/>
      <path class="cls-1" d="M1442.45,123.59c38.97,42.68,77.68,85.08,117.23,128.41h-5.87c-20.17,0-40.33-.09-60.49.08-3.51.03-5.77-1.08-8.09-3.65-30.96-34.24-62.02-68.38-93.07-102.54-1-1.1-2.09-2.11-3.79-3.83v109.58h-55.03V5.2h54.62v103c2.26-2.69,3.52-4.15,4.73-5.65,25.09-30.92,50.23-61.8,75.17-92.85,2.92-3.63,5.86-4.95,10.47-4.89,18.49.27,37,.11,55.49.11,1.6,0,3.21,0,6.03,0-32.9,40.09-65.06,79.27-97.39,118.67Z"/>
      <path class="cls-1" d="M414.22,5.22h55.55c0,2.25,0,4.2,0,6.16,0,47.32-.1,94.64.11,141.96.03,6.58.7,13.42,2.59,19.67,5.8,19.17,23.78,30.51,45.37,29.47,26.86-1.3,44-18.58,44.15-45.49.28-48.49.1-96.98.11-145.46,0-1.97,0-3.94,0-6.26h55.23c.09,1.64.26,3.38.26,5.12.01,47.65.03,95.31,0,142.96-.02,21.21-3.91,41.49-15.88,59.42-18.46,27.64-44.99,41.22-77.74,43.12-16.58.96-33.03-.33-48.6-6.72-36.39-14.92-56.06-42.46-60.32-81.24-.78-7.1-.79-14.3-.8-21.46-.07-44.99-.03-89.98-.03-134.97v-6.3Z"/>
      <path class="cls-1" d="M259.38,5.08h54.85v193.71h102.25v52.92h-157.1V5.08Z"/>
      <path class="cls-1" d="M836.25,251.68V5.31h55.13v193.57h102.24v52.79h-157.37Z"/>
      <path class="cls-1" d="M1057.17,251.88h-54.74V5.36h54.74v246.52Z"/>
    </g>
  </g>
</svg>